<svg xmlns="http://www.w3.org/2000/svg" width="21.834" height="14.842" viewBox="0 0 21.834 14.842">
  <g id="Group_1973" data-name="Group 1973" transform="translate(1.046 1)">
    <g id="Group_1862" data-name="Group 1862">
      <g id="Group_1861" data-name="Group 1861">
        <path id="Path_5957" data-name="Path 5957" d="M1812.6,1509.063a11.278,11.278,0,0,0-19.061,0,2.189,2.189,0,0,0,0,2.346,11.278,11.278,0,0,0,19.061,0A2.189,2.189,0,0,0,1812.6,1509.063Zm-9.531,3.112a1.939,1.939,0,1,1,1.939-1.939A1.939,1.939,0,0,1,1803.068,1512.175Z" transform="translate(-1793.197 -1503.815)" fill="none" stroke="#b2b2b2" stroke-width="2"/>
      </g>
    </g>
    <circle id="Ellipse_31" data-name="Ellipse 31" cx="3.045" cy="3.045" r="3.045" transform="matrix(0.607, -0.795, 0.795, 0.607, 5.604, 6.992)" fill="#b2b2b2" stroke="rgba(0,0,0,0)" stroke-width="1"/>
  </g>
</svg>
