<svg xmlns="http://www.w3.org/2000/svg" width="307.545" height="66.554" viewBox="0 0 307.545 66.554">
  <g id="Group_10692" data-name="Group 10692" transform="translate(347.799 -364.363)">
    <g id="Group_10677" data-name="Group 10677">
      <g id="Hire" style="mix-blend-mode: normal;isolation: isolate">
        <g id="Group_10884" data-name="Group 10884" style="mix-blend-mode: normal;isolation: isolate">
          <path id="Path_23573" data-name="Path 23573" d="M-305.751,366.234a3.731,3.731,0,0,1,1.008,2.7v43.992a3.728,3.728,0,0,1-1.008,2.7,3.54,3.54,0,0,1-2.664,1.044,3.6,3.6,0,0,1-2.664-1.009,3.691,3.691,0,0,1-1.008-2.735V393.558h-28.368v19.368a3.728,3.728,0,0,1-1.008,2.7,3.539,3.539,0,0,1-2.664,1.044,3.6,3.6,0,0,1-2.664-1.009,3.691,3.691,0,0,1-1.008-2.735V368.934a3.723,3.723,0,0,1,1.008-2.7,3.534,3.534,0,0,1,2.664-1.044,3.539,3.539,0,0,1,2.664,1.044,3.731,3.731,0,0,1,1.008,2.7V387.51h28.368V368.934a3.723,3.723,0,0,1,1.008-2.7,3.534,3.534,0,0,1,2.664-1.044A3.54,3.54,0,0,1-305.751,366.234Z" fill="#3e4245"/>
          <path id="Path_23574" data-name="Path 23574" d="M-293.656,372.246a3.954,3.954,0,0,1-1.224-3.024,3.844,3.844,0,0,1,1.224-2.988,4.733,4.733,0,0,1,3.312-1.116,4.762,4.762,0,0,1,3.276,1.116,3.8,3.8,0,0,1,1.26,2.988,3.957,3.957,0,0,1-1.224,3.024,4.638,4.638,0,0,1-3.312,1.152A4.637,4.637,0,0,1-293.656,372.246Zm.684,43.56a3.173,3.173,0,0,1-1.044-2.592V383.982a3.281,3.281,0,0,1,1.044-2.628,3.882,3.882,0,0,1,2.628-.9,3.751,3.751,0,0,1,2.593.9,3.344,3.344,0,0,1,1.007,2.628v29.232a3.232,3.232,0,0,1-1.007,2.592,3.849,3.849,0,0,1-2.593.864A3.984,3.984,0,0,1-292.972,415.806Z" fill="#3e4245"/>
          <path id="Path_23575" data-name="Path 23575" d="M-254.92,383.406a3.231,3.231,0,0,1-.792,2.376,4.262,4.262,0,0,1-2.736.936l-2.16.216q-4.536.432-6.732,3.168a10.246,10.246,0,0,0-2.2,6.624v16.488a3.232,3.232,0,0,1-1.008,2.592,3.846,3.846,0,0,1-2.592.864,3.982,3.982,0,0,1-2.628-.864,3.173,3.173,0,0,1-1.044-2.592v-29.3a3.193,3.193,0,0,1,1.044-2.556,3.88,3.88,0,0,1,2.628-.9,3.417,3.417,0,0,1,2.412.9,3.221,3.221,0,0,1,.972,2.484v3.456a10.576,10.576,0,0,1,4.176-4.824,14.044,14.044,0,0,1,6.192-1.944l1.008-.072Q-254.92,380.238-254.92,383.406Z" fill="#3e4245"/>
          <path id="Path_23576" data-name="Path 23576" d="M-222.232,408.245a3.084,3.084,0,0,1,.648,2.017q0,2.088-2.592,3.528a22.83,22.83,0,0,1-5.508,2.231,22.333,22.333,0,0,1-5.724.792q-8.354,0-13.176-4.86t-4.824-13.283a20.821,20.821,0,0,1,2.124-9.576,15.62,15.62,0,0,1,5.976-6.48,16.715,16.715,0,0,1,8.748-2.3q7.056,0,11.16,4.536t4.1,12.24q0,2.88-2.592,2.88h-22.248q.719,11.16,10.728,11.16a13.251,13.251,0,0,0,4.608-.721,33.064,33.064,0,0,0,4.1-1.872q.216-.143,1.188-.611a3.935,3.935,0,0,1,1.62-.469A2.049,2.049,0,0,1-222.232,408.245Zm-20.88-19.943a12.435,12.435,0,0,0-3.024,7.489h18.576q-.216-4.9-2.484-7.525a7.964,7.964,0,0,0-6.372-2.628A8.786,8.786,0,0,0-243.112,388.3Z" fill="#3e4245"/>
        </g>
      </g>
      <g id="Wing" style="mix-blend-mode: normal;isolation: isolate">
        <g id="Group_10885" data-name="Group 10885" style="mix-blend-mode: normal;isolation: isolate">
          <path id="Path_23577" data-name="Path 23577" d="M-146.164,365.447a3.476,3.476,0,0,1,1.971-.584,3.632,3.632,0,0,1,2.445.913,2.983,2.983,0,0,1,1.059,2.372,3.564,3.564,0,0,1-.292,1.46l-16.133,45.114a3.85,3.85,0,0,1-1.606,1.9,4.585,4.585,0,0,1-2.409.657,4.454,4.454,0,0,1-2.336-.657,3.491,3.491,0,0,1-1.533-1.9l-13.286-37.668-13.578,37.668a3.491,3.491,0,0,1-1.533,1.9,4.457,4.457,0,0,1-2.336.657,4.4,4.4,0,0,1-2.373-.657,3.9,3.9,0,0,1-1.569-1.9l-16.133-45.114a3.548,3.548,0,0,1-.292-1.46,2.942,2.942,0,0,1,1.1-2.372,3.969,3.969,0,0,1,2.628-.913,3.652,3.652,0,0,1,2.007.584,3.436,3.436,0,0,1,1.351,1.752l13.505,38.835,13.724-38.47a3.665,3.665,0,0,1,1.423-1.9,3.8,3.8,0,0,1,2.154-.658,3.508,3.508,0,0,1,2.117.694,4.414,4.414,0,0,1,1.46,1.934L-161.2,406.4l13.724-39.2A3.508,3.508,0,0,1-146.164,365.447Z" fill="#fff"/>
          <path id="Path_23578" data-name="Path 23578" d="M-132.8,372.09a4.009,4.009,0,0,1-1.241-3.066,3.9,3.9,0,0,1,1.241-3.029,4.792,4.792,0,0,1,3.358-1.132,4.826,4.826,0,0,1,3.321,1.132,3.848,3.848,0,0,1,1.278,3.029,4.013,4.013,0,0,1-1.241,3.066,4.7,4.7,0,0,1-3.358,1.168A4.692,4.692,0,0,1-132.8,372.09Zm.693,44.165a3.213,3.213,0,0,1-1.058-2.628V383.989a3.324,3.324,0,0,1,1.058-2.664,3.93,3.93,0,0,1,2.665-.912,3.8,3.8,0,0,1,2.628.912,3.387,3.387,0,0,1,1.022,2.664v29.638a3.272,3.272,0,0,1-1.022,2.628,3.9,3.9,0,0,1-2.628.876A4.037,4.037,0,0,1-132.112,416.255Z" fill="#fff"/>
          <path id="Path_23579" data-name="Path 23579" d="M-83.75,394.647v18.98a3.357,3.357,0,0,1-.985,2.591,3.88,3.88,0,0,1-2.738.913,3.689,3.689,0,0,1-2.665-.949,3.385,3.385,0,0,1-.985-2.555V395.012q0-4.524-1.789-6.643t-5.584-2.117a9.531,9.531,0,0,0-7.154,2.774,10.217,10.217,0,0,0-2.7,7.446v17.155a3.385,3.385,0,0,1-.985,2.555,3.69,3.69,0,0,1-2.665.949,3.817,3.817,0,0,1-2.7-.949,3.316,3.316,0,0,1-1.022-2.555v-29.71a3.285,3.285,0,0,1,1.058-2.519,3.759,3.759,0,0,1,2.665-.985,3.456,3.456,0,0,1,2.555.948,3.361,3.361,0,0,1,.949,2.482v2.993a11.847,11.847,0,0,1,4.891-4.891,14.776,14.776,0,0,1,7.081-1.679Q-83.751,380.266-83.75,394.647Z" fill="#fff"/>
          <path id="Path_23580" data-name="Path 23580" d="M-41.739,381.4a3.506,3.506,0,0,1,.985,2.591v29.93q0,8.174-4.343,12.337t-12.812,4.161q-7.884,0-13.14-2.993-2.7-1.535-2.7-3.651a3.007,3.007,0,0,1,.694-2.044,2.173,2.173,0,0,1,1.715-.8,7.514,7.514,0,0,1,2.993,1.094,36.834,36.834,0,0,0,4.891,1.935,18.566,18.566,0,0,0,5.4.693q10.074,0,10.074-10.146v-5.621a11.185,11.185,0,0,1-4.672,5,14.484,14.484,0,0,1-7.3,1.789,15.857,15.857,0,0,1-8.322-2.191,14.71,14.71,0,0,1-5.657-6.205,20.45,20.45,0,0,1-2.008-9.27,20.162,20.162,0,0,1,2.044-9.271,15.3,15.3,0,0,1,5.658-6.241,15.46,15.46,0,0,1,8.285-2.227,14.38,14.38,0,0,1,7.191,1.752,11.462,11.462,0,0,1,4.708,4.964v-3.065a3.382,3.382,0,0,1,.986-2.556,3.68,3.68,0,0,1,2.664-.948A3.6,3.6,0,0,1-41.739,381.4Zm-9.016,25.293q2.7-3.137,2.7-8.686,0-5.475-2.664-8.65a9.234,9.234,0,0,0-7.483-3.176,9.5,9.5,0,0,0-7.555,3.139q-2.739,3.141-2.738,8.687t2.774,8.686a9.52,9.52,0,0,0,7.519,3.14A9.3,9.3,0,0,0-50.755,406.691Z" fill="#fff"/>
        </g>
        <g id="Group_10886" data-name="Group 10886" style="mix-blend-mode: normal;isolation: isolate">
          <path id="Path_23581" data-name="Path 23581" d="M-146.164,365.447a3.476,3.476,0,0,1,1.971-.584,3.632,3.632,0,0,1,2.445.913,2.983,2.983,0,0,1,1.059,2.372,3.564,3.564,0,0,1-.292,1.46l-16.133,45.114a3.85,3.85,0,0,1-1.606,1.9,4.585,4.585,0,0,1-2.409.657,4.454,4.454,0,0,1-2.336-.657,3.491,3.491,0,0,1-1.533-1.9l-13.286-37.668-13.578,37.668a3.491,3.491,0,0,1-1.533,1.9,4.457,4.457,0,0,1-2.336.657,4.4,4.4,0,0,1-2.373-.657,3.9,3.9,0,0,1-1.569-1.9l-16.133-45.114a3.548,3.548,0,0,1-.292-1.46,2.942,2.942,0,0,1,1.1-2.372,3.969,3.969,0,0,1,2.628-.913,3.652,3.652,0,0,1,2.007.584,3.436,3.436,0,0,1,1.351,1.752l13.505,38.835,13.724-38.47a3.665,3.665,0,0,1,1.423-1.9,3.8,3.8,0,0,1,2.154-.658,3.508,3.508,0,0,1,2.117.694,4.414,4.414,0,0,1,1.46,1.934L-161.2,406.4l13.724-39.2A3.508,3.508,0,0,1-146.164,365.447Z" fill="none" stroke="#fff" stroke-width="1"/>
          <path id="Path_23582" data-name="Path 23582" d="M-132.8,372.09a4.009,4.009,0,0,1-1.241-3.066,3.9,3.9,0,0,1,1.241-3.029,4.792,4.792,0,0,1,3.358-1.132,4.826,4.826,0,0,1,3.321,1.132,3.848,3.848,0,0,1,1.278,3.029,4.013,4.013,0,0,1-1.241,3.066,4.7,4.7,0,0,1-3.358,1.168A4.692,4.692,0,0,1-132.8,372.09Zm.693,44.165a3.213,3.213,0,0,1-1.058-2.628V383.989a3.324,3.324,0,0,1,1.058-2.664,3.93,3.93,0,0,1,2.665-.912,3.8,3.8,0,0,1,2.628.912,3.387,3.387,0,0,1,1.022,2.664v29.638a3.272,3.272,0,0,1-1.022,2.628,3.9,3.9,0,0,1-2.628.876A4.037,4.037,0,0,1-132.112,416.255Z" fill="none" stroke="#fff" stroke-width="1"/>
          <path id="Path_23583" data-name="Path 23583" d="M-83.75,394.647v18.98a3.357,3.357,0,0,1-.985,2.591,3.88,3.88,0,0,1-2.738.913,3.689,3.689,0,0,1-2.665-.949,3.385,3.385,0,0,1-.985-2.555V395.012q0-4.524-1.789-6.643t-5.584-2.117a9.531,9.531,0,0,0-7.154,2.774,10.217,10.217,0,0,0-2.7,7.446v17.155a3.385,3.385,0,0,1-.985,2.555,3.69,3.69,0,0,1-2.665.949,3.817,3.817,0,0,1-2.7-.949,3.316,3.316,0,0,1-1.022-2.555v-29.71a3.285,3.285,0,0,1,1.058-2.519,3.759,3.759,0,0,1,2.665-.985,3.456,3.456,0,0,1,2.555.948,3.361,3.361,0,0,1,.949,2.482v2.993a11.847,11.847,0,0,1,4.891-4.891,14.776,14.776,0,0,1,7.081-1.679Q-83.751,380.266-83.75,394.647Z" fill="none" stroke="#fff" stroke-width="1"/>
          <path id="Path_23584" data-name="Path 23584" d="M-41.739,381.4a3.506,3.506,0,0,1,.985,2.591v29.93q0,8.174-4.343,12.337t-12.812,4.161q-7.884,0-13.14-2.993-2.7-1.535-2.7-3.651a3.007,3.007,0,0,1,.694-2.044,2.173,2.173,0,0,1,1.715-.8,7.514,7.514,0,0,1,2.993,1.094,36.834,36.834,0,0,0,4.891,1.935,18.566,18.566,0,0,0,5.4.693q10.074,0,10.074-10.146v-5.621a11.185,11.185,0,0,1-4.672,5,14.484,14.484,0,0,1-7.3,1.789,15.857,15.857,0,0,1-8.322-2.191,14.71,14.71,0,0,1-5.657-6.205,20.45,20.45,0,0,1-2.008-9.27,20.162,20.162,0,0,1,2.044-9.271,15.3,15.3,0,0,1,5.658-6.241,15.46,15.46,0,0,1,8.285-2.227,14.38,14.38,0,0,1,7.191,1.752,11.462,11.462,0,0,1,4.708,4.964v-3.065a3.382,3.382,0,0,1,.986-2.556,3.68,3.68,0,0,1,2.664-.948A3.6,3.6,0,0,1-41.739,381.4Zm-9.016,25.293q2.7-3.137,2.7-8.686,0-5.475-2.664-8.65a9.234,9.234,0,0,0-7.483-3.176,9.5,9.5,0,0,0-7.555,3.139q-2.739,3.141-2.738,8.687t2.774,8.686a9.52,9.52,0,0,0,7.519,3.14A9.3,9.3,0,0,0-50.755,406.691Z" fill="none" stroke="#fff" stroke-width="1"/>
        </g>
      </g>
    </g>
  </g>
</svg>
