<svg xmlns="http://www.w3.org/2000/svg" xmlns:xlink="http://www.w3.org/1999/xlink" width="33.764" height="41.199" viewBox="0 0 33.764 41.199">
  <defs>
    <filter id="Path_262" x="0" y="8.156" width="33.764" height="33.044" filterUnits="userSpaceOnUse">
      <feOffset dy="3" input="SourceAlpha"/>
      <feGaussianBlur stdDeviation="3" result="blur"/>
      <feFlood flood-opacity="0.161"/>
      <feComposite operator="in" in2="blur"/>
      <feComposite in="SourceGraphic"/>
    </filter>
    <filter id="Path_263" x="1.388" y="0" width="31.197" height="28.646" filterUnits="userSpaceOnUse">
      <feOffset dy="3" input="SourceAlpha"/>
      <feGaussianBlur stdDeviation="3" result="blur-2"/>
      <feFlood flood-opacity="0.161"/>
      <feComposite operator="in" in2="blur-2"/>
      <feComposite in="SourceGraphic"/>
    </filter>
  </defs>
  <g id="Group_266" data-name="Group 266" transform="translate(9 6)">
    <g transform="matrix(1, 0, 0, 1, -9, -6)" filter="url(#Path_262)">
      <path id="Path_262-2" data-name="Path 262" d="M15.963,53.778H2.194a1,1,0,0,0-1,1V67.824a1,1,0,0,0,1,1H15.963a1,1,0,0,0,1-1V54.776a1,1,0,0,0-1-1m-5.921,7.3v3.793H8.321V61.075a1.771,1.771,0,0,1-.937-1.546,1.8,1.8,0,1,1,3.6,0,1.775,1.775,0,0,1-.937,1.546" transform="translate(7.8 -39.62)" fill="#3b4046"/>
    </g>
    <g transform="matrix(1, 0, 0, 1, -9, -6)" filter="url(#Path_263)">
      <path id="Path_263-2" data-name="Path 263" d="M5.414,60.917a5.041,5.041,0,1,1,5.956,0h2.2A6.588,6.588,0,1,0,1.793,56.871a6.529,6.529,0,0,0,1.423,4.046Z" transform="translate(8.6 -44.27)" fill="#3b4046"/>
    </g>
  </g>
</svg>
