<svg xmlns="http://www.w3.org/2000/svg" width="28.433" height="28.751" viewBox="0 0 28.433 28.751">
  <g id="add-user" transform="translate(-3.199 -3)">
    <path id="Path_6206" data-name="Path 6206" d="M13.389,15.778A6.389,6.389,0,1,0,7,9.389,6.389,6.389,0,0,0,13.389,15.778Z" transform="translate(2.27 0)" fill="#9e9e9e"/>
    <path id="Path_6207" data-name="Path 6207" d="M3.276,22.616a12.782,12.782,0,0,1,24.768,0,2.659,2.659,0,0,1-2.8,3.162H6.076A2.659,2.659,0,0,1,3.276,22.616Z" transform="translate(0 5.973)" fill="#9e9e9e"/>
    <path id="Path_6208" data-name="Path 6208" d="M19.792,8a1.6,1.6,0,0,1,1.6,1.6v1.6h1.6a1.6,1.6,0,0,1,0,3.195h-1.6v1.6a1.6,1.6,0,0,1-3.195,0v-1.6H16.6a1.6,1.6,0,0,1,0-3.195h1.6V9.6A1.6,1.6,0,0,1,19.792,8Z" transform="translate(7.049 2.986)" fill="#9e9e9e"/>
  </g>
</svg>
