<svg xmlns="http://www.w3.org/2000/svg" xmlns:xlink="http://www.w3.org/1999/xlink" width="547.543" height="812.819" viewBox="0 0 547.543 812.819">
  <defs>
    <filter id="Rectangle_1833" x="1" y="0" width="546.543" height="812.818" filterUnits="userSpaceOnUse">
      <feOffset dy="3" input="SourceAlpha"/>
      <feGaussianBlur stdDeviation="3" result="blur"/>
      <feFlood flood-opacity="0.161"/>
      <feComposite operator="in" in2="blur"/>
      <feComposite in="SourceGraphic"/>
    </filter>
    <filter id="Path_6211" x="0" y="0" width="547.043" height="812.819" filterUnits="userSpaceOnUse">
      <feOffset dy="3" input="SourceAlpha"/>
      <feGaussianBlur stdDeviation="3" result="blur-2"/>
      <feFlood flood-opacity="0.161"/>
      <feComposite operator="in" in2="blur-2"/>
      <feComposite in="SourceGraphic"/>
    </filter>
  </defs>
  <g id="Group_2221" data-name="Group 2221" transform="translate(-1155 -147.181)">
    <g transform="matrix(1, 0, 0, 1, 1155, 147.18)" filter="url(#Rectangle_1833)">
      <rect id="Rectangle_1833-2" data-name="Rectangle 1833" width="528.543" height="794.818" rx="80" transform="translate(10 6)" fill="#efefef"/>
    </g>
    <g transform="matrix(1, 0, 0, 1, 1155, 147.18)" filter="url(#Path_6211)">
      <path id="Path_6211-2" data-name="Path 6211" d="M2852.371,1026.143H2408c-23.383,0-42.338-25.245-42.338-56.387V287.711c0-31.142,18.955-56.387,42.338-56.387h178.045c24.377,0,44.139,26.319,44.139,58.786h0c0,32.467,21.861,40.774,46.238,40.774H2892.51l2.2,638.871C2894.708,1000.9,2875.753,1026.143,2852.371,1026.143Z" transform="translate(-2356.67 -225.32)" fill="#fff"/>
    </g>
  </g>
</svg>
