<svg xmlns="http://www.w3.org/2000/svg" xmlns:xlink="http://www.w3.org/1999/xlink" width="547.044" height="812.819" viewBox="0 0 547.044 812.819">
  <defs>
    <filter id="Rectangle_1833" x="0.499" y="0" width="546.543" height="812.818" filterUnits="userSpaceOnUse">
      <feOffset dy="3" input="SourceAlpha"/>
      <feGaussianBlur stdDeviation="3" result="blur"/>
      <feFlood flood-opacity="0.161"/>
      <feComposite operator="in" in2="blur"/>
      <feComposite in="SourceGraphic"/>
    </filter>
    <filter id="Path_6137" x="0" y="0" width="547.044" height="812.819" filterUnits="userSpaceOnUse">
      <feOffset dy="3" input="SourceAlpha"/>
      <feGaussianBlur stdDeviation="3" result="blur-2"/>
      <feFlood flood-opacity="0.161"/>
      <feComposite operator="in" in2="blur-2"/>
      <feComposite in="SourceGraphic"/>
    </filter>
  </defs>
  <g id="Group_2220" data-name="Group 2220" transform="translate(-1155.001 -147.181)">
    <g transform="matrix(1, 0, 0, 1, 1155, 147.18)" filter="url(#Rectangle_1833)">
      <rect id="Rectangle_1833-2" data-name="Rectangle 1833" width="528.543" height="794.818" rx="80" transform="translate(9.5 6)" fill="#efefef"/>
    </g>
    <g transform="matrix(1, 0, 0, 1, 1155, 147.18)" filter="url(#Path_6137)">
      <path id="Path_6137-2" data-name="Path 6137" d="M2408,1026.143h444.368c23.383,0,42.338-25.245,42.338-56.387V287.711c0-31.142-18.955-56.387-42.338-56.387H2674.326c-24.377,0-44.139,26.319-44.139,58.786h0c0,32.467-21.861,40.774-46.238,40.774H2367.864l-2.2,638.871C2365.665,1000.9,2384.62,1026.143,2408,1026.143Z" transform="translate(-2356.66 -225.32)" fill="#fff"/>
    </g>
  </g>
</svg>
