<svg xmlns="http://www.w3.org/2000/svg" xmlns:xlink="http://www.w3.org/1999/xlink" width="37.961" height="38.079" viewBox="0 0 37.961 38.079">
  <defs>
    <filter id="Path_259" x="4.62" y="0" width="28.721" height="28.721" filterUnits="userSpaceOnUse">
      <feOffset dy="3" input="SourceAlpha"/>
      <feGaussianBlur stdDeviation="3" result="blur"/>
      <feFlood flood-opacity="0.161"/>
      <feComposite operator="in" in2="blur"/>
      <feComposite in="SourceGraphic"/>
    </filter>
    <filter id="Path_260" x="0" y="9.994" width="37.961" height="28.085" filterUnits="userSpaceOnUse">
      <feOffset dy="3" input="SourceAlpha"/>
      <feGaussianBlur stdDeviation="3" result="blur-2"/>
      <feFlood flood-opacity="0.161"/>
      <feComposite operator="in" in2="blur-2"/>
      <feComposite in="SourceGraphic"/>
    </filter>
  </defs>
  <g id="Group_265" data-name="Group 265" transform="translate(9 6)">
    <g transform="matrix(1, 0, 0, 1, -9, -6)" filter="url(#Path_259)">
      <path id="Path_259-2" data-name="Path 259" d="M12.844,29.685a5.36,5.36,0,1,1-5.36-5.36,5.361,5.361,0,0,1,5.36,5.36" transform="translate(11.5 -18.33)" fill="#3b4046"/>
    </g>
    <g transform="matrix(1, 0, 0, 1, -9, -6)" filter="url(#Path_260)">
      <path id="Path_260-2" data-name="Path 260" d="M18.622,39a1.35,1.35,0,0,0,1.323-1.563,10.086,10.086,0,0,0-19.929,0A1.35,1.35,0,0,0,1.34,39Z" transform="translate(9 -12.92)" fill="#3b4046"/>
    </g>
  </g>
</svg>
