<svg xmlns="http://www.w3.org/2000/svg" width="36.245" height="24.553" viewBox="0 0 36.245 24.553">
  <g id="_001-india" data-name="001-india" transform="translate(0 -80)">
    <path id="Path_6225" data-name="Path 6225" d="M0,304v4.794a3.383,3.383,0,0,0,3.508,3.391H32.737a3.383,3.383,0,0,0,3.508-3.391V304Z" transform="translate(0 -207.632)" fill="#359846"/>
    <path id="Path_6226" data-name="Path 6226" d="M32.737,80H3.508A3.383,3.383,0,0,0,0,83.391v4.794H36.244V83.391A3.383,3.383,0,0,0,32.737,80Z" transform="translate(0 0)" fill="#ea8634"/>
    <rect id="Rectangle_2168" data-name="Rectangle 2168" width="36.244" height="8.184" transform="translate(0 88.184)" fill="#fcfbf0"/>
    <path id="Path_6227" data-name="Path 6227" d="M324.787,312.184a3.484,3.484,0,0,0,3.624-3.391V304H315.2Z" transform="translate(-292.167 -207.632)" fill="#21872f"/>
    <path id="Path_6228" data-name="Path 6228" d="M77.229,80H48l9.7,8.184H80.737V83.391A3.383,3.383,0,0,0,77.229,80Z" transform="translate(-44.492 0)" fill="#e27423"/>
    <path id="Path_6229" data-name="Path 6229" d="M189.938,200.184h13.153V192H180Z" transform="translate(-166.847 -103.816)" fill="#f7f4e2"/>
    <path id="Path_6230" data-name="Path 6230" d="M77.229,80H48l27.066,8.184h5.67V83.391A3.383,3.383,0,0,0,77.229,80Z" transform="translate(-44.492 0)" fill="#d86619"/>
    <path id="Path_6231" data-name="Path 6231" d="M420.363,193.637V192H414.4Z" transform="translate(-384.118 -103.816)" fill="#f2e9c2"/>
    <path id="Path_6232" data-name="Path 6232" d="M36.244,368.058a3.362,3.362,0,0,1-3.508,3.449H3.508A3.481,3.481,0,0,1,0,368" transform="translate(0 -266.955)" fill="#167a20"/>
    <path id="Path_6233" data-name="Path 6233" d="M201.283,197.6a3.683,3.683,0,1,0,3.683,3.683A3.668,3.668,0,0,0,201.283,197.6Zm3.04,4.092c0,.058.058.175.117.175-.058.175-.058.351-.117.526-.058-.058-.175,0-.234.058s0,.175.058.234c-.058.175-.175.292-.234.468a.145.145,0,0,0-.234.058.178.178,0,0,0,0,.234l-.175.175-1.286-1.461-.526-.409.058-.058.526.409,1.7.877-1.52-1.169-.585-.234c0-.058,0-.058.058-.117l.585.234,1.871.409-1.812-.585-.643-.117v-.117l.643.058,1.929-.117-1.929-.117-.643.058v-.117l.643-.117,1.812-.585-1.871.409-.585.234c0-.058,0-.058-.058-.117l.585-.234,1.637-1.052-1.7.877-.526.409-.058-.058.526-.409,1.286-1.461.175.175a.178.178,0,0,0,0,.234.352.352,0,0,0,.234.058,1.175,1.175,0,0,1,.234.468c-.058.058-.117.117-.058.234.058.058.117.117.234.058a1.706,1.706,0,0,1,.117.526c-.058,0-.117.117-.117.175s.117.175.175.117v.468C204.381,201.517,204.323,201.575,204.323,201.692Zm-5.086-2.864a.178.178,0,0,0,.234,0,.352.352,0,0,0,.058-.234,1.175,1.175,0,0,1,.468-.234c.058.058.117.117.234.058.058-.058.117-.117.058-.234a1.707,1.707,0,0,1,.526-.117c0,.058.117.117.175.117s.175-.117.117-.175h.468c0,.058.058.175.117.175s.175-.058.175-.117c.175.058.351.058.526.117-.058.058,0,.175.058.234s.175,0,.234-.058c.175.058.292.175.468.234a.145.145,0,0,0,.058.234.178.178,0,0,0,.234,0l.175.175-1.461,1.286-.409.526-.058-.058.409-.526.877-1.7-1.169,1.578-.234.585c-.058,0-.058,0-.117-.058l.234-.585.409-1.871L201.517,200l-.117.643h-.117l.058-.643-.058-1.929L201.166,200l.058.643h-.117l-.117-.643-.585-1.812.409,1.871.234.585c-.058,0-.058,0-.117.058l-.234-.585-1.052-1.637.877,1.7.409.526-.058.058-.409-.526L199,198.945C199.061,198.945,199.12,198.886,199.237,198.828ZM199,203.563l-.175-.175a.178.178,0,0,0,0-.234.352.352,0,0,0-.234-.058,1.175,1.175,0,0,1-.234-.468c.058-.058.117-.117.058-.234-.058-.058-.117-.117-.234-.058a1.707,1.707,0,0,1-.117-.526c.058,0,.117-.117.117-.175s-.117-.175-.175-.117v-.468c.058,0,.175-.058.175-.117s-.058-.175-.117-.175c.058-.175.058-.351.117-.526.058.058.175,0,.234-.058s0-.175-.058-.234c.058-.175.175-.292.234-.468a.145.145,0,0,0,.234-.058c.058-.117.058-.175,0-.234L199,199l1.286,1.461.526.409-.058.058-.526-.409-1.7-.877,1.637,1.052.585.234c0,.058,0,.058-.058.117l-.585-.234-1.871-.409,1.812.585.643.117v.117l-.643-.058-1.988.117L200,201.4l.643-.058v.117l-.643.117-1.812.585,1.871-.409.585-.234c0,.058,0,.058.058.117l-.585.234-1.637,1.052,1.7-.877.526-.409.058.058-.526.409Zm2.046.935c0-.058-.058-.175-.117-.175s-.175.058-.175.117c-.175-.058-.351-.058-.526-.117.058-.058,0-.175-.058-.234s-.175,0-.234.058c-.175-.058-.292-.175-.468-.234a.145.145,0,0,0-.058-.234.178.178,0,0,0-.234,0L199,203.5l1.461-1.286.409-.526.058.058-.409.526-.877,1.7,1.052-1.637.234-.585c.058,0,.058,0,.117.058l-.234.585-.409,1.871.585-1.812.117-.643h.117l-.058.643.117,1.929.117-1.929-.058-.643h.117l.117.643.585,1.812-.409-1.871-.234-.585c.058,0,.058,0,.117-.058l.234.585,1.052,1.637-.877-1.7-.409-.526.058-.058.409.526,1.461,1.286-.175.175a.178.178,0,0,0-.234,0,.351.351,0,0,0-.058.234,1.175,1.175,0,0,1-.468.234c-.058-.058-.117-.117-.234-.058s-.117.117-.058.234a1.707,1.707,0,0,1-.526.117c0-.058-.117-.117-.175-.117s-.175.117-.117.175h-.468Z" transform="translate(-183.161 -109.007)" fill="#7d7dbc"/>
    <g id="Group_2101" data-name="Group 2101" transform="translate(15.316 88.593)">
      <path id="Path_6234" data-name="Path 6234" d="M259.2,257.6l.175.175v-.058Z" transform="translate(-255.576 -253.216)" fill="#6060b2"/>
      <path id="Path_6235" data-name="Path 6235" d="M212.406,197.6a3.848,3.848,0,0,0-2.806,1.286l.351.292.175-.175.175-.175a.178.178,0,0,0,.234,0,.352.352,0,0,0,.058-.234c.058-.058.175-.058.234-.117l.877,1.7.409.526-.058.058-.409-.526-1.461-1.286,1.228,1.4.175.117.351.292h0l.994.818.058-.058.526.409,1.7.877c-.058.058-.058.175-.117.234a.145.145,0,0,0-.234.058.178.178,0,0,0,0,.234h0l.351.292a3.761,3.761,0,0,0,.877-2.4A3.655,3.655,0,0,0,212.406,197.6Zm-.292,3.1-.234-.585-1.052-1.578a.3.3,0,0,1,.234-.117c.058.058.117.117.234.058.058-.058.117-.117.058-.234.058,0,.175-.058.234-.058l.409,1.871.234.585C212.172,200.7,212.172,200.7,212.114,200.7Zm.351-.058.058-.643-.117-1.929L212.289,200l.058.643h-.117l-.117-.643-.585-1.812c.058,0,.175-.058.234-.058,0,.058.117.117.175.117s.175-.117.117-.175h.468c0,.058.058.175.117.175s.175-.058.175-.117c.058,0,.175.058.234.058L212.464,200l-.117.643Zm.117.058.234-.585.409-1.871c.058,0,.175.058.234.058-.058.058,0,.175.058.234s.175,0,.234-.058c.058.058.175.058.234.117l-1.052,1.52-.234.585Zm2.631,1.754c-.058.058,0,.175.058.234-.058.058-.058.175-.117.234l-1.578-1.111-.585-.234c0-.058,0-.058.058-.117l.585.234,1.871.409c0,.058-.058.175-.058.234A.3.3,0,0,0,215.212,202.452Zm.409-1.4v.468c-.058,0-.175.058-.175.117s.058.175.117.175c0,.058-.058.175-.058.234l-1.812-.585-.643-.117v-.117l.643.058,1.929-.117-1.929-.117-.643.058v-.117l.643-.117,1.812-.585c0,.058.058.175.058.234-.058,0-.117.117-.117.175C215.446,200.991,215.5,201.049,215.621,201.049Zm-.409-.935c.058.058.117.117.234.058,0,.058.058.175.058.234l-1.871.409-.585.234c0-.058,0-.058-.058-.117l.585-.234,1.578-1.052a.3.3,0,0,1,.117.234C215.212,199.938,215.154,200.055,215.212,200.114Zm-.058-.409-1.7.877-.526.409-.058-.058.526-.409,1.286-1.461-1.461,1.286-.409.526-.058-.058.409-.526.877-1.7c.058.058.175.058.234.117a.145.145,0,0,0,.058.234.178.178,0,0,0,.234,0l.175.175.175.175a.178.178,0,0,0,0,.234.351.351,0,0,0,.234.058C215.1,199.529,215.154,199.588,215.154,199.7Z" transform="translate(-209.6 -197.6)" fill="#6060b2"/>
    </g>
  </g>
</svg>
