<svg xmlns="http://www.w3.org/2000/svg" width="36.244" height="24.163" viewBox="0 0 36.244 24.163">
  <g id="_003-united-states-of-america" data-name="003-united-states-of-america" transform="translate(0 -85.331)">
    <rect id="Rectangle_2169" data-name="Rectangle 2169" width="36.244" height="24.163" transform="translate(0 85.331)" fill="#f0f0f0"/>
    <g id="Group_2103" data-name="Group 2103" transform="translate(0 88.351)">
      <rect id="Rectangle_2170" data-name="Rectangle 2170" width="36.244" height="3.02" transform="translate(0 0)" fill="#d80027"/>
      <rect id="Rectangle_2171" data-name="Rectangle 2171" width="36.244" height="3.02" transform="translate(0 6.041)" fill="#d80027"/>
      <rect id="Rectangle_2172" data-name="Rectangle 2172" width="36.244" height="3.02" transform="translate(0 12.081)" fill="#d80027"/>
      <rect id="Rectangle_2173" data-name="Rectangle 2173" width="36.244" height="3.02" transform="translate(0 18.122)" fill="#d80027"/>
    </g>
    <rect id="Rectangle_2174" data-name="Rectangle 2174" width="18.122" height="13.011" transform="translate(0 85.331)" fill="#2e52b2"/>
    <g id="Group_2104" data-name="Group 2104" transform="translate(1.841 87.421)">
      <path id="Path_6240" data-name="Path 6240" d="M83.6,160.624l-.292.9h-.944l.764.555-.292.9.764-.555.763.555-.292-.9.764-.555H83.89Z" transform="translate(-78.373 -157.384)" fill="#f0f0f0"/>
      <path id="Path_6241" data-name="Path 6241" d="M83.89,207.295l-.291-.9-.292.9h-.944l.764.555-.292.9.764-.555.763.555-.292-.9.764-.555Z" transform="translate(-78.373 -199.916)" fill="#f0f0f0"/>
      <path id="Path_6242" data-name="Path 6242" d="M27.528,207.295l-.291-.9-.292.9H26l.764.555-.292.9.764-.555.763.555-.292-.9.764-.555Z" transform="translate(-26.001 -199.916)" fill="#f0f0f0"/>
      <path id="Path_6243" data-name="Path 6243" d="M27.237,160.624l-.292.9H26l.764.555-.292.9.764-.555.763.555-.292-.9.764-.555h-.944Z" transform="translate(-26.001 -157.384)" fill="#f0f0f0"/>
      <path id="Path_6244" data-name="Path 6244" d="M83.6,114.85l-.292.9h-.944l.764.555-.292.9.764-.555.763.555-.292-.9.764-.555H83.89Z" transform="translate(-78.373 -114.85)" fill="#f0f0f0"/>
      <path id="Path_6245" data-name="Path 6245" d="M27.237,114.85l-.292.9H26l.764.555-.292.9.764-.555L28,117.2l-.292-.9.764-.555h-.944Z" transform="translate(-26.001 -114.85)" fill="#f0f0f0"/>
      <path id="Path_6246" data-name="Path 6246" d="M139.961,160.624l-.292.9h-.944l.764.555-.292.9.764-.555.764.555-.292-.9.764-.555h-.944Z" transform="translate(-130.745 -157.384)" fill="#f0f0f0"/>
      <path id="Path_6247" data-name="Path 6247" d="M140.252,207.295l-.292-.9-.292.9h-.944l.764.555-.292.9.764-.555.764.555-.292-.9.764-.555Z" transform="translate(-130.745 -199.916)" fill="#f0f0f0"/>
      <path id="Path_6248" data-name="Path 6248" d="M196.615,207.295l-.291-.9-.292.9h-.944l.764.555-.292.9.764-.555.763.555-.292-.9.764-.555Z" transform="translate(-183.118 -199.916)" fill="#f0f0f0"/>
      <path id="Path_6249" data-name="Path 6249" d="M196.324,160.624l-.292.9h-.944l.764.555-.292.9.764-.555.763.555-.292-.9.764-.555h-.944Z" transform="translate(-183.118 -157.384)" fill="#f0f0f0"/>
      <path id="Path_6250" data-name="Path 6250" d="M139.961,114.85l-.292.9h-.944l.764.555-.292.9.764-.555.764.555-.292-.9.764-.555h-.944Z" transform="translate(-130.745 -114.85)" fill="#f0f0f0"/>
      <path id="Path_6251" data-name="Path 6251" d="M196.324,114.85l-.292.9h-.944l.764.555-.292.9.764-.555.763.555-.292-.9.764-.555h-.944Z" transform="translate(-183.118 -114.85)" fill="#f0f0f0"/>
    </g>
  </g>
</svg>
