<svg xmlns="http://www.w3.org/2000/svg" width="34.096" height="22.077" viewBox="0 0 34.096 22.077">
  <g id="Layer_10" data-name="Layer 10" transform="translate(-4 -13.87)">
    <path id="Path_6236" data-name="Path 6236" d="M20.84,13.87H34.43V35.947H20.84Z" transform="translate(-6.587 0)" fill="#fff"/>
    <g id="Group_2102" data-name="Group 2102" transform="translate(4 13.87)">
      <path id="Path_6237" data-name="Path 6237" d="M43.16,13.87H53.413V35.947H43.16Z" transform="translate(-19.317 -13.87)" fill="#bf0a30"/>
      <path id="Path_6238" data-name="Path 6238" d="M4,13.87H14.253V35.947H4Z" transform="translate(-4 -13.87)" fill="#bf0a30"/>
      <path id="Path_6239" data-name="Path 6239" d="M31.26,30.851a.177.177,0,0,1,.043-.195l2.618-2.435-.792-.365a.177.177,0,0,1-.085-.225l.7-1.613-1.6.524a.177.177,0,0,1-.225-.128l-.195-.913-1.218,1.065a.177.177,0,0,1-.286-.164l.487-2.63-1.023.438a.177.177,0,0,1-.225-.085l-.877-2.253-.858,2.283a.177.177,0,0,1-.225.085l-1.023-.463.487,2.63a.177.177,0,0,1-.286.164L25.458,25.5l-.195.913a.177.177,0,0,1-.225.128l-1.6-.524.7,1.613a.177.177,0,0,1-.085.225l-.792.365,2.618,2.435a.177.177,0,0,1,.043.195l-.3.731,2.825-.359-.073,2.825h.451l-.073-2.825,2.825.359Z" transform="translate(-11.534 -16.999)" fill="#bf0a30"/>
    </g>
  </g>
</svg>
