<svg xmlns="http://www.w3.org/2000/svg" width="30.972" height="22.451" viewBox="0 0 30.972 22.451">
  <g id="malasya" transform="translate(0 -88.276)">
    <path id="Path_60879" data-name="Path 60879" d="M309.5,88.811v.915h11.579a2.32,2.32,0,0,0-2.15-1.449h-9.962A.534.534,0,0,1,309.5,88.811Z" transform="translate(-290.275 -0.001)" fill="#ff4b55"/>
    <path id="Path_60880" data-name="Path 60880" d="M317.793,112.235v1.449h11.748v-.579a2.313,2.313,0,0,0-.169-.87H317.793Z" transform="translate(-298.569 -22.51)" fill="#f5f5f5"/>
    <rect id="Rectangle_19212" data-name="Rectangle 19212" width="11.748" height="1.449" transform="translate(19.224 91.175)" fill="#ff4b55"/>
    <rect id="Rectangle_19213" data-name="Rectangle 19213" width="11.748" height="1.449" transform="translate(19.224 93.122)" fill="#f5f5f5"/>
    <rect id="Rectangle_19214" data-name="Rectangle 19214" width="11.748" height="1.449" transform="translate(19.224 94.738)" fill="#ff4b55"/>
    <rect id="Rectangle_19215" data-name="Rectangle 19215" width="11.748" height="1.449" transform="translate(19.224 96.353)" fill="#f5f5f5"/>
    <rect id="Rectangle_19216" data-name="Rectangle 19216" width="11.748" height="1.449" transform="translate(19.224 97.969)" fill="#ff4b55"/>
    <path id="Path_60881" data-name="Path 60881" d="M309.5,256.915a.534.534,0,0,1-.534.534h12.282V256H309.5Z" transform="translate(-290.275 -156.416)" fill="#f5f5f5"/>
    <path id="Path_60882" data-name="Path 60882" d="M.534,271.667h0A.534.534,0,0,1,0,271.133v1.983H30.972v-1.449H.534Z" transform="translate(0 -170.491)" fill="#ff4b55"/>
    <rect id="Rectangle_19217" data-name="Rectangle 19217" width="30.972" height="1.449" transform="translate(0 102.815)" fill="#f5f5f5"/>
    <rect id="Rectangle_19218" data-name="Rectangle 19218" width="30.972" height="1.449" transform="translate(0 104.431)" fill="#ff4b55"/>
    <rect id="Rectangle_19219" data-name="Rectangle 19219" width="30.972" height="1.449" transform="translate(0 106.379)" fill="#f5f5f5"/>
    <path id="Path_60883" data-name="Path 60883" d="M0,376.383a2.313,2.313,0,0,0,.169.87H30.8a2.312,2.312,0,0,0,.169-.87V375.8H0Z" transform="translate(0 -267.976)" fill="#ff4b55"/>
    <path id="Path_60884" data-name="Path 60884" d="M4.949,401.213H31.282a2.32,2.32,0,0,0,2.15-1.449H2.8A2.32,2.32,0,0,0,4.949,401.213Z" transform="translate(-2.63 -290.487)" fill="#f5f5f5"/>
    <path id="Path_60885" data-name="Path 60885" d="M.534,99.871H18.69a.534.534,0,0,0,.534-.534V88.81a.534.534,0,0,0-.534-.534H2.32A2.32,2.32,0,0,0,0,90.6v8.742A.534.534,0,0,0,.534,99.871Z" transform="translate(0 0)" fill="#41479b"/>
    <g id="Group_38360" data-name="Group 38360" transform="translate(3.68 89.888)">
      <path id="Path_60886" data-name="Path 60886" d="M62.227,119.111a3.657,3.657,0,0,1,5.087-3.367.051.051,0,0,0,.049-.09,4.18,4.18,0,1,0-.006,6.916.051.051,0,0,0-.049-.09,3.657,3.657,0,0,1-5.082-3.369" transform="translate(-60.834 -114.931)" fill="#ffe15a"/>
      <path id="Path_60887" data-name="Path 60887" d="M154.058,136.478l1.546-.6a.071.071,0,0,0-.031-.137l-1.652.132,1.135-1.213a.071.071,0,0,0-.088-.11l-1.435.837.5-1.583a.071.071,0,0,0-.127-.061l-.929,1.376-.238-1.642a.071.071,0,0,0-.141,0l-.152,1.039-.063.44-.024.163-.929-1.375a.071.071,0,0,0-.127.061l.5,1.582-1.435-.837a.071.071,0,0,0-.088.11l1.135,1.213-1.652-.132a.071.071,0,0,0-.031.137l1.547.6-1.547.6a.071.071,0,0,0,.031.137l1.652-.132-1.135,1.217a.071.071,0,0,0,.088.11l1.435-.84-.5,1.582a.071.071,0,0,0,.127.061l.929-1.375.024.167.063.436.152,1.042a.071.071,0,0,0,.141,0l.238-1.645.929,1.376a.071.071,0,0,0,.127-.061l-.5-1.583,1.435.84a.071.071,0,0,0,.088-.11l-1.135-1.216,1.652.132a.071.071,0,0,0,.031-.137Z" transform="translate(-144.305 -132.299)" fill="#ffe15a"/>
    </g>
  </g>
</svg>
