<svg xmlns="http://www.w3.org/2000/svg" width="47.945" height="32.525" viewBox="0 0 47.945 32.525">
  <g id="Group_64" data-name="Group 64" transform="translate(-235 -274.817)">
    <g id="customer" transform="translate(251 274.817)">
      <circle id="Ellipse_1" data-name="Ellipse 1" cx="4.565" cy="4.565" r="4.565" transform="translate(3.382)" fill="#3b4046"/>
      <path id="Path_2" data-name="Path 2" d="M129.578,239.906c-2.573-.171-4.81,0-6.739,1.274-3.228,2.066-2.607,4.848-2.607,8.252a1.892,1.892,0,0,0,2.061,1.647c12.422,0,12.916.32,13.653-.983.242-.441.175-.3.175-4.517C136.121,242.228,132.492,239.906,129.578,239.906Z" transform="translate(-120.185 -229.429)" fill="#3b4046"/>
    </g>
    <g id="customer-2" data-name="customer" transform="translate(235 285.658)">
      <circle id="Ellipse_1-2" data-name="Ellipse 1" cx="4.565" cy="4.565" r="4.565" transform="translate(3.382)" fill="#3b4046"/>
      <path id="Path_2-2" data-name="Path 2" d="M129.578,239.906c-2.573-.171-4.81,0-6.739,1.274-3.228,2.066-2.607,4.848-2.607,8.252a1.892,1.892,0,0,0,2.061,1.647c12.422,0,12.916.32,13.653-.983.242-.441.175-.3.175-4.517C136.121,242.228,132.492,239.906,129.578,239.906Z" transform="translate(-120.185 -229.429)" fill="#3b4046"/>
    </g>
    <g id="customer-3" data-name="customer" transform="translate(267 285.658)">
      <circle id="Ellipse_1-3" data-name="Ellipse 1" cx="4.565" cy="4.565" r="4.565" transform="translate(3.382)" fill="#3b4046"/>
      <path id="Path_2-3" data-name="Path 2" d="M129.578,239.906c-2.573-.171-4.81,0-6.739,1.274-3.228,2.066-2.607,4.848-2.607,8.252a1.892,1.892,0,0,0,2.061,1.647c12.422,0,12.916.32,13.653-.983.242-.441.175-.3.175-4.517C136.121,242.228,132.492,239.906,129.578,239.906Z" transform="translate(-120.185 -229.429)" fill="#3b4046"/>
    </g>
  </g>
</svg>
