<svg xmlns="http://www.w3.org/2000/svg" width="1923" height="422.554" viewBox="0 0 1923 422.554">
  <g id="Group_5197" data-name="Group 5197" transform="translate(3 0)">
    <path id="Path_3835" data-name="Path 3835" d="M0,0H1923V422.554H0V0Z" transform="translate(-3)" fill="#ffd800"/>
    <circle id="Ellipse_5" data-name="Ellipse 5" cx="21.883" cy="21.883" r="21.883" transform="translate(319 148.245)" fill="#fffdea"/>
    <circle id="Ellipse_30" data-name="Ellipse 30" cx="8.441" cy="8.441" r="8.441" transform="translate(866.117 170.245)" fill="#fffdea"/>
    <path id="Path_3111" data-name="Path 3111" d="M4658.407,1675.444s-5.143-11.484-18.157-10.046-11.465,12.951-17.661,11.872-14.873,0-16.732,7.2-10.225,3.237-10.534,9.354,9.6,10.433,21.069,5.036,17.042,4.192,33.155,2.456,18.108-3.9,27.646-2.815,9.311-6.5,4.972-11.54S4660.266,1682.4,4658.407,1675.444Z" transform="translate(-3181.037 -1387.547)" fill="#fff"/>
    <g id="Group_1114" data-name="Group 1114" transform="translate(1046 169.504)">
      <path id="Path_3113" data-name="Path 3113" d="M3658.421,1855.316s11.322-22.992,39.972-20.111,25.239,25.928,38.881,23.767,32.743,0,36.835,14.4,22.51,6.482,23.192,18.726-21.146,20.887-46.385,10.083-37.518,8.393-72.988,4.917-39.866-7.8-60.861-5.637-20.5-13.018-10.947-23.1S3654.328,1869.241,3658.421,1855.316Z" transform="translate(-3599.796 -1834.955)" fill="#fff"/>
    </g>
    <g id="Group_1115" data-name="Group 1115" transform="translate(1746.045 188.186)">
      <path id="Path_3114" data-name="Path 3114" d="M3947.893,1730.345a19.656,19.656,0,0,1,19.62-9.757c14.063,1.4,12.389,12.579,19.086,11.531s16.072,0,18.081,6.989,11.049,3.145,11.384,9.085-10.38,10.134-22.769,4.892-18.416,4.072-35.827,2.386-19.568-3.783-29.874-2.735-10.061-6.316-5.373-11.208S3945.884,1737.1,3947.893,1730.345Z" transform="translate(-3919.117 -1720.466)" fill="#fff"/>
    </g>
    <g id="Group_1116" data-name="Group 1116" transform="translate(1462.275 129.969)">
      <path id="Path_3115" data-name="Path 3115" d="M3739.688,1551.815s6.628-13.3,23.4-11.637,14.776,15,22.762,13.752,19.168,0,21.564,8.335,13.177,3.751,13.577,10.835-12.38,12.085-27.155,5.834-21.963,4.856-42.728,2.845-23.338-4.512-35.629-3.262-12-7.532-6.408-13.366S3737.292,1559.873,3739.688,1551.815Z" transform="translate(-3705.369 -1540.033)" fill="#fff"/>
    </g>
    <g id="Group_1831" data-name="Group 1831" transform="translate(40.932)">
      <path id="Path_3833" data-name="Path 3833" d="M591.781,489.519l1.315-35.007c.013-.423-4.847-5.647-6.542-7.224-9.966-9.3-66.308-24.427-56.336-15.133,12.49,11.635,12.49,24.941,0,29.7L421.254,503.385l-10.127-9.432L407.258,518.4l1.595,1.477,38.856,8.153-10.131-9.433,108.964-41.528c12.484-4.766,32.741.81,45.24,12.453Z" transform="translate(1155.193 -285.381)" fill="#ec9f01" fill-rule="evenodd"/>
      <path id="Path_3834" data-name="Path 3834" d="M446.084,557.3a21.9,21.9,0,0,1-16.874-21.319,22.187,22.187,0,0,1,.523-4.789c-.679.065-1.382.1-2.082.1a21.937,21.937,0,0,1-21.593-25.7,11.948,11.948,0,0,1-15.711-2.934,11.931,11.931,0,0,1-15.513-16.619,14.01,14.01,0,0,1-1.914.124,16.026,16.026,0,0,1-3.376-.357,30.98,30.98,0,0,1-44.485-14.375,41.635,41.635,0,0,1-45.2-8.764,28.743,28.743,0,0,0-37.7,2.575l-97.9,97.841,9.1,9.093-34.913,3.473-1.433-1.419,3.481-34.9,9.093,9.093L227.5,450.567a28.723,28.723,0,0,0,0-40.623,3.508,3.508,0,0,1-1.014-1.647,41.691,41.691,0,0,1-6.949-36.994,30.436,30.436,0,0,1-15.528-53.1h-.757a25.92,25.92,0,0,1-24.99-32.9l-1.06.025a21.849,21.849,0,0,1-17.27-8.421A11.931,11.931,0,0,1,144.526,261a22.065,22.065,0,0,1-10.7-6.939H446.084V557.3Zm-182-79.773a2.41,2.41,0,1,1,2.418-2.408,2.411,2.411,0,0,1-2.418,2.408Zm-14.218,1.948a2.408,2.408,0,1,1,2.415-2.4,2.407,2.407,0,0,1-2.415,2.4Zm2.218-7.948a2.409,2.409,0,1,1,2.411-2.406,2.412,2.412,0,0,1-2.411,2.406Zm-13.574,15.32a2.408,2.408,0,1,1,2.418-2.4,2.409,2.409,0,0,1-2.418,2.4Zm17.541.207a2.408,2.408,0,1,1,2.411-2.4,2.408,2.408,0,0,1-2.411,2.4Zm68.577,3.2a5.088,5.088,0,1,1,5.1-5.081,5.084,5.084,0,0,1-5.1,5.081Zm-48.556-23.867a2.41,2.41,0,1,0,2.417-2.411,2.417,2.417,0,0,0-2.417,2.411Zm-73.38-63.647a2.41,2.41,0,1,0,4.819.011,2.41,2.41,0,0,0-4.819-.011Zm-4.249-25.542a5.088,5.088,0,1,0,5.087-5.087,5.063,5.063,0,0,0-5.087,5.087Zm9.469,75.11a2.41,2.41,0,1,0,2.407-2.415,2.406,2.406,0,0,0-2.407,2.415Zm-1.567-26.6a2.41,2.41,0,1,0,2.418-2.415,2.414,2.414,0,0,0-2.418,2.415Zm-.292-32.657a2.417,2.417,0,1,0,2.418-2.408,2.432,2.432,0,0,0-2.418,2.408Zm5.111,12.616a2.432,2.432,0,0,0,2.419,2.407,2.41,2.41,0,1,0-2.419-2.407Zm-1.489,9.3a2.41,2.41,0,1,0,2.408-2.408,2.41,2.41,0,0,0-2.408,2.408ZM219,423.958a2.416,2.416,0,1,0,2.4-2.408,2.416,2.416,0,0,0-2.4,2.408Zm-5.08,18.928a5.092,5.092,0,1,0,5.094-5.092,5.081,5.081,0,0,0-5.094,5.092ZM298.1,483.3a2.409,2.409,0,1,1,2.4-2.406,2.413,2.413,0,0,1-2.4,2.406Zm-12.627-5.1a2.408,2.408,0,1,1,2.41-2.4,2.412,2.412,0,0,1-2.41,2.4Zm-9.313,1.5a2.409,2.409,0,1,1,2.416-2.406,2.41,2.41,0,0,1-2.416,2.406Zm-9.012-9.314a2.409,2.409,0,1,1,2.4-2.412,2.41,2.41,0,0,1-2.4,2.412Z" transform="translate(1432.984 -254.066)" fill="#fff" fill-rule="evenodd"/>
    </g>
    <g id="arrow" transform="translate(241.73 192.012)">
      <path id="Path_3475" data-name="Path 3475" d="M45.266,60.734a57.386,57.386,0,0,0-24.886,21.1q.4-13.144.115-26.287c-.057-2.71-4.272-2.722-4.215,0Q16.641,73.1,15.82,90.65c-.092,2,3.066,3,3.928,1.068A53.791,53.791,0,0,1,47.39,64.375c2.492-1.08.345-4.72-2.125-3.64Z" transform="translate(-15.818 -6.022)"/>
      <path id="Path_3476" data-name="Path 3476" d="M89.2,12.287C67.756,19.82,49.634,34.474,35.819,52.32A152.742,152.742,0,0,0,25.07,68.191c-1.378,2.343,2.262,4.467,3.64,2.125,11-18.639,26.046-35.256,44.857-46.212a97.634,97.634,0,0,1,16.755-7.752c2.538-.884,1.436-4.961-1.125-4.065Z" transform="translate(-14.491 -12.159)"/>
    </g>
    <g id="Group_1832" data-name="Group 1832" transform="translate(222.766 -201.066)">
      <text id="The_word_lorem_for_example_isn_t_a_real_Latin_word_" data-name="The word ‘lorem’ for example, isn’t a
real Latin word," transform="matrix(1, 0, 0, 1, 143, 471)" fill="#313131" font-size="20" font-family="Poppins-Regular, Poppins" letter-spacing="0.035em"><tspan x="0" y="0">The word ‘lorem’ for example, isn’t a</tspan><tspan x="0" y="27">real Latin word,</tspan></text>
      <text id="Are_you_looking_for_Lorem_" data-name="Are you looking for Lorem?" transform="matrix(1, 0, 0, 1, 140, 423.292)" font-size="40" font-family="Poppins-Regular, Poppins" letter-spacing="0.035em"><tspan x="0" y="0">Are you looking for </tspan><tspan y="0" font-family="Poppins-Bold, Poppins" font-weight="700">Lorem?</tspan></text>
    </g>
  </g>
</svg>
