<svg xmlns="http://www.w3.org/2000/svg" width="208.117" height="948.662" viewBox="0 0 208.117 948.662">
  <g id="Group_11275" data-name="Group 11275" transform="translate(-1022.67 -105.8)">
    <g id="Group_11220" data-name="Group 11220" transform="translate(-2416 182)" opacity="0.261">
      <g id="Group_11033" data-name="Group 11033" transform="translate(2827.789 -104.47)">
        <path id="Path_23742" data-name="Path 23742" d="M815.888,58.046a1.31,1.31,0,1,1,1.309,1.309A1.31,1.31,0,0,1,815.888,58.046Z"/>
        <path id="Path_23743" data-name="Path 23743" d="M817.2,59.846a1.8,1.8,0,1,1,1.8-1.8A1.8,1.8,0,0,1,817.2,59.846Zm0-2.619a.818.818,0,1,0,.818.819A.82.82,0,0,0,817.2,57.227Z"/>
      </g>
      <g id="Group_11061" data-name="Group 11061" transform="translate(2827.789 -104.47)">
        <g id="Group_11052" data-name="Group 11052">
          <path id="Path_23763" data-name="Path 23763" d="M769.82,116.294a.463.463,0,0,1-.1-.01l-62.085-12.4a.491.491,0,0,1-.385-.578l14.964-74.645a.491.491,0,0,1,.578-.385L784.87,40.724a.49.49,0,0,1,.312.21.484.484,0,0,1,.073.368l-4.033,20.119a.491.491,0,0,1-.963-.193L784.2,41.591,723.084,29.34l-14.772,73.681,61.123,12.2,2.406-12a.491.491,0,0,1,.963.193L770.3,115.9A.491.491,0,0,1,769.82,116.294Z"/>
        </g>
        <g id="Group_11055" data-name="Group 11055">
          <g id="Group_11053" data-name="Group 11053">
            <path id="Path_23764" data-name="Path 23764" d="M771,49.952a.122.122,0,0,1-.032,0L759.77,47.7a.164.164,0,0,1,.065-.321l11.194,2.244a.164.164,0,0,1-.032.325Z"/>
          </g>
          <g id="Group_11054" data-name="Group 11054">
            <path id="Path_23765" data-name="Path 23765" d="M770.295,53.456a.183.183,0,0,1-.033,0l-15.8-3.168a.164.164,0,1,1,.065-.321l15.8,3.168a.164.164,0,0,1-.032.324Z"/>
          </g>
        </g>
        <g id="Group_11056" data-name="Group 11056">
          <path id="Path_23766" data-name="Path 23766" d="M762.608,68.043a.124.124,0,0,1-.033,0L728.308,61.17a.164.164,0,0,1,.064-.321l34.268,6.869a.164.164,0,0,1-.032.325Z"/>
        </g>
        <g id="Group_11057" data-name="Group 11057">
          <path id="Path_23767" data-name="Path 23767" d="M755.51,78.536a.184.184,0,0,1-.033,0l-29.466-5.907a.164.164,0,0,1,.064-.321l29.467,5.907a.164.164,0,0,1-.032.324Z"/>
        </g>
        <g id="Group_11058" data-name="Group 11058">
          <path id="Path_23768" data-name="Path 23768" d="M758.014,90.955a.122.122,0,0,1-.032,0l-34.268-6.869a.164.164,0,0,1,.065-.321l34.267,6.869a.164.164,0,0,1-.032.325Z"/>
        </g>
        <g id="Group_11059" data-name="Group 11059">
          <path id="Path_23769" data-name="Path 23769" d="M775.329,97.884A15.76,15.76,0,0,1,759.867,79.05h0a15.733,15.733,0,1,1,15.462,18.834Zm-14.5-18.641h0A14.754,14.754,0,1,0,778.2,67.676,14.771,14.771,0,0,0,760.83,79.243Z"/>
        </g>
        <g id="Group_11060" data-name="Group 11060">
          <path id="Path_23770" data-name="Path 23770" d="M774,88.385l-5.4-9L771.4,77.7l3.259,5.426,6.1-6.021,2.3,2.329Z"/>
        </g>
      </g>
      <g id="Group_11083" data-name="Group 11083" transform="translate(2827.789 -104.47)">
        <g id="Group_11081" data-name="Group 11081">
          <g id="Group_11078" data-name="Group 11078">
            <path id="Path_23789" data-name="Path 23789" d="M786.56,151.149l20.021-37.567,8.036,4.29L794.6,155.44l-7.168,3.409Z" fill="#fff"/>
            <path id="Path_23790" data-name="Path 23790" d="M787.428,159.34a.491.491,0,0,1-.487-.436l-.869-7.7a.488.488,0,0,1,.055-.286l20.021-37.567a.492.492,0,0,1,.29-.239.487.487,0,0,1,.374.037l8.036,4.29a.491.491,0,0,1,.2.664L795.03,155.671a.492.492,0,0,1-.223.212l-7.168,3.409A.486.486,0,0,1,787.428,159.34Zm-.363-8.094.774,6.864,6.4-3.044,19.714-36.991-7.169-3.827Z"/>
          </g>
          <g id="Group_11079" data-name="Group 11079">
            <path id="Path_23791" data-name="Path 23791" d="M794.421,155.6a.492.492,0,0,1-.231-.058l-7.788-4.158a.491.491,0,1,1,.462-.866l7.788,4.157a.491.491,0,0,1-.231.925Z"/>
          </g>
          <g id="Group_11080" data-name="Group 11080">
            <path id="Path_23792" data-name="Path 23792" d="M786.368,161.329a.492.492,0,0,1-.433-.722l1.112-2.086a.491.491,0,0,1,.866.462l-1.112,2.085A.489.489,0,0,1,786.368,161.329Z"/>
          </g>
        </g>
        <g id="Group_11082" data-name="Group 11082">
          <rect id="Rectangle_4119" data-name="Rectangle 4119" width="8.018" height="6.547" transform="translate(807.649 114.376) rotate(-61.948)"/>
        </g>
      </g>
      <g id="Group_11201" data-name="Group 11201" transform="translate(2827.789 -104.47)">
        <path id="Path_23918" data-name="Path 23918" d="M794.631,45.232a.492.492,0,0,1-.445-.7c1.553-3.328.729-7.246-.333-11.3a.491.491,0,1,1,.95-.249c1.109,4.239,1.964,8.343.273,11.968A.49.49,0,0,1,794.631,45.232Z"/>
      </g>
      <g id="Group_11202" data-name="Group 11202" transform="translate(2827.789 -104.47)">
        <path id="Path_23919" data-name="Path 23919" d="M799.846,46.082a.476.476,0,0,1-.19-.039.491.491,0,0,1-.262-.643,20.8,20.8,0,0,0,1.615-7.114.491.491,0,0,1,.981.047,21.778,21.778,0,0,1-1.691,7.449A.492.492,0,0,1,799.846,46.082Z"/>
      </g>
    </g>
    <g id="Group_11140" data-name="Group 11140" transform="translate(587.729 670.53)" opacity="0.261">
      <g id="Group_11131" data-name="Group 11131">
        <path id="Path_23845" data-name="Path 23845" d="M530.813,336.783l-13.354,46.326-57.29-2.292-6.93-44.217Z" fill="#ffd42e"/>
        <path id="Path_23846" data-name="Path 23846" d="M517.459,383.6h-.02l-57.29-2.292a.491.491,0,0,1-.465-.415l-6.931-44.217a.491.491,0,0,1,.485-.567h0l77.574.184a.492.492,0,0,1,.471.627l-13.354,46.325A.491.491,0,0,1,517.459,383.6Zm-56.868-3.257,56.5,2.26,13.067-45.33-76.348-.181Z"/>
      </g>
      <g id="Group_11136" data-name="Group 11136">
        <g id="Group_11132" data-name="Group 11132">
          <path id="Path_23847" data-name="Path 23847" d="M517.818,314.7,516.9,383.44l-61.319-.155L455.33,314.7Z" fill="#fff"/>
          <path id="Path_23848" data-name="Path 23848" d="M516.9,383.932h0l-61.318-.156a.491.491,0,0,1-.49-.489l-.251-68.584a.493.493,0,0,1,.491-.493h62.488a.492.492,0,0,1,.491.5l-.918,68.739A.492.492,0,0,1,516.9,383.932ZM456.07,382.8l60.345.153.906-67.755h-61.5Z"/>
        </g>
        <g id="Group_11133" data-name="Group 11133">
          <path id="Path_23849" data-name="Path 23849" d="M506.763,342.5H481.945a.163.163,0,0,1,0-.327h24.818a.163.163,0,0,1,0,.327Z"/>
        </g>
        <g id="Group_11134" data-name="Group 11134">
          <path id="Path_23850" data-name="Path 23850" d="M506.763,353.085h-21.84a.163.163,0,0,1,0-.327h21.84a.163.163,0,0,1,0,.327Z"/>
        </g>
        <g id="Group_11135" data-name="Group 11135">
          <path id="Path_23851" data-name="Path 23851" d="M506.763,363.669h-21.84a.164.164,0,0,1,0-.328h21.84a.164.164,0,0,1,0,.328Z"/>
        </g>
      </g>
      <g id="Group_11137" data-name="Group 11137">
        <path id="Path_23852" data-name="Path 23852" d="M461.879,326.982l9.469,9.884,35.94-.465L516.9,383.44l-69.952-.158-11.515-56.37Z" fill="#fff"/>
        <path id="Path_23853" data-name="Path 23853" d="M516.9,383.932h0l-69.952-.159a.491.491,0,0,1-.48-.393l-11.515-56.37a.491.491,0,0,1,.481-.589h0l26.447.07a.49.49,0,0,1,.353.151l9.321,9.731,35.727-.462a.492.492,0,0,1,.488.392l9.611,47.039a.491.491,0,0,1-.481.59Zm-69.551-1.14,68.949.156-9.409-46.05-35.534.459a.462.462,0,0,1-.361-.151l-9.325-9.734-25.634-.068Z"/>
      </g>
      <g id="Group_11138" data-name="Group 11138">
        <path id="Path_23854" data-name="Path 23854" d="M505.409,326.115H470.562a.163.163,0,1,1,0-.327h34.847a.163.163,0,0,1,0,.327Z"/>
      </g>
      <g id="Group_11139" data-name="Group 11139">
        <path id="Path_23855" data-name="Path 23855" d="M505.409,331.439H486.574a.163.163,0,0,1,0-.327h18.835a.163.163,0,0,1,0,.327Z"/>
      </g>
    </g>
  </g>
</svg>
