<svg xmlns="http://www.w3.org/2000/svg" width="695.76" height="478" viewBox="0 0 695.76 478">
  <g id="Group_11276" data-name="Group 11276" transform="translate(-0.001 0)">
    <g id="Group_11218" data-name="Group 11218" transform="translate(-2619.66 1181.604)" opacity="0.261">
      <g id="Group_10991" data-name="Group 10991" transform="translate(2607.789 -1213.47)">
        <path id="Path_23693" data-name="Path 23693" d="M95.921,156.6a3.568,3.568,0,1,1,3.568-3.568A3.573,3.573,0,0,1,95.921,156.6Zm0-6.155a2.587,2.587,0,1,0,2.586,2.587A2.59,2.59,0,0,0,95.921,150.448Z"/>
      </g>
      <g id="Group_10999" data-name="Group 10999" transform="translate(2607.789 -1213.47)">
        <g id="Group_10998" data-name="Group 10998">
          <path id="Path_23700" data-name="Path 23700" d="M95.921,74.077l7.547-9.4H99.31v-31.6H92.531v31.6H88.373Z"/>
          <path id="Path_23701" data-name="Path 23701" d="M95.921,74.568a.488.488,0,0,1-.383-.184l-7.547-9.4a.491.491,0,0,1,.382-.8H92.04V33.073a.491.491,0,0,1,.491-.491H99.31a.491.491,0,0,1,.491.491V64.186h3.667a.491.491,0,0,1,.383.8l-7.548,9.4A.488.488,0,0,1,95.921,74.568Zm-6.524-9.4,6.524,8.125,6.523-8.125H99.31a.491.491,0,0,1-.491-.491V33.564h-5.8V64.677a.491.491,0,0,1-.491.491Z"/>
        </g>
      </g>
      <g id="Group_11014" data-name="Group 11014" transform="translate(2607.789 -1213.47)">
        <path id="Path_23719" data-name="Path 23719" d="M40.869,103.915c-4.6-3.784-10.273-4.7-14.61-.515s-4.916,13.017-.58,17.2c4.716,4.55,15.925,4.488,22.051,4.382,11.791-.2,23.785.363,35.577.363,22.1,0,19.7-18.983,13.807-23.028a7.531,7.531,0,0,0-9.359.759c1.105-7.991-3.8-16.481-10.59-18.315s-14.418,3.265-16.464,11A10.146,10.146,0,0,0,48.523,92.87C44.467,94.866,41.86,99.123,40.869,103.915Z" fill="#fff"/>
        <path id="Path_23720" data-name="Path 23720" d="M83.307,125.836c-5,0-10.115-.1-15.064-.2-6.742-.136-13.714-.277-20.5-.16-5.649.1-17.4.3-22.4-4.519a11.5,11.5,0,0,1-3.127-8.3,13.485,13.485,0,0,1,3.708-9.605c4-3.86,9.556-3.838,14.642,0,1.207-4.931,4-8.775,7.745-10.618a10.5,10.5,0,0,1,12.173,2.35,16.241,16.241,0,0,1,7.24-9.036,12.556,12.556,0,0,1,9.574-1.457c6.749,1.824,11.62,9.75,11.07,17.679a8.053,8.053,0,0,1,9.029-.054c3.187,2.187,5.419,8.338,3.661,14.009C99.9,119.624,96.072,125.836,83.307,125.836Zm-30.194-1.389c5.068,0,10.171.1,15.15.2,4.944.1,10.057.2,15.044.2,12.136,0,15.74-5.779,16.808-9.224,1.606-5.179-.439-10.96-3.279-12.908a7.079,7.079,0,0,0-8.747.715.491.491,0,0,1-.82-.428C88.335,95.3,83.553,87,77.037,85.235a11.578,11.578,0,0,0-8.827,1.359,15.284,15.284,0,0,0-7.034,9.295.491.491,0,0,1-.853.187A9.712,9.712,0,0,0,48.74,93.311c-3.663,1.8-6.357,5.7-7.391,10.7a.491.491,0,0,1-.792.28c-4.907-4.037-10.124-4.24-13.957-.542a12.492,12.492,0,0,0-3.407,8.9,10.521,10.521,0,0,0,2.827,7.6c4.7,4.538,16.615,4.332,21.7,4.244Q50.4,124.444,53.113,124.447Z"/>
      </g>
      <g id="Group_11016" data-name="Group 11016" transform="translate(2607.789 -1213.47)">
        <path id="Path_23723" data-name="Path 23723" d="M50.988,194.3a.491.491,0,0,1-.491-.491V130.256a.491.491,0,0,1,.982,0v63.558A.491.491,0,0,1,50.988,194.3Z"/>
      </g>
      <g id="Group_11037" data-name="Group 11037" transform="translate(2607.789 -1213.47)">
        <circle id="Ellipse_114" data-name="Ellipse 114" cx="1.309" cy="1.309" r="1.309" transform="translate(44.718 32.356)"/>
        <path id="Path_23749" data-name="Path 23749" d="M46.027,35.466a1.8,1.8,0,1,1,1.8-1.8A1.8,1.8,0,0,1,46.027,35.466Zm0-2.618a.818.818,0,1,0,.819.818A.819.819,0,0,0,46.027,32.848Z"/>
      </g>
      <g id="Group_11038" data-name="Group 11038" transform="translate(2607.789 -1213.47)">
        <circle id="Ellipse_115" data-name="Ellipse 115" cx="1.309" cy="1.309" r="1.309" transform="translate(32.188 32.356)"/>
        <path id="Path_23750" data-name="Path 23750" d="M33.5,35.466a1.8,1.8,0,1,1,1.8-1.8A1.8,1.8,0,0,1,33.5,35.466Zm0-2.618a.818.818,0,1,0,.818.818A.819.819,0,0,0,33.5,32.848Z"/>
      </g>
      <g id="Group_11084" data-name="Group 11084" transform="translate(2607.789 -1213.47)">
        <path id="Path_23793" data-name="Path 23793" d="M22.954,193.019a.491.491,0,0,1-.011-.982c.308-.007,30.986-.692,54.233-.692,7.72,0,14.066-4.094,20.2-8.054,6.087-3.927,11.836-7.636,18.369-6.964a.49.49,0,0,1,.438.538.5.5,0,0,1-.539.439c-6.188-.638-11.8,2.981-17.736,6.812-6.257,4.037-12.726,8.211-20.736,8.211-23.236,0-53.9.685-54.21.692Z"/>
      </g>
      <g id="Group_11124" data-name="Group 11124" transform="translate(2607.789 -1213.47)">
        <rect id="Rectangle_4120" data-name="Rectangle 4120" width="9.921" height="9.921" transform="translate(46.027 186.876)" fill="#ffd42e"/>
        <path id="Path_23838" data-name="Path 23838" d="M55.949,197.288H46.027a.491.491,0,0,1-.491-.491v-9.921a.491.491,0,0,1,.491-.491h9.922a.491.491,0,0,1,.491.491V196.8A.491.491,0,0,1,55.949,197.288Zm-9.431-.982h8.94v-8.939h-8.94Z"/>
      </g>
      <g id="Group_11177" data-name="Group 11177" transform="translate(2607.789 -1213.47)">
        <path id="Path_23895" data-name="Path 23895" d="M35.37,83.85a.492.492,0,0,1-.49-.458c-.448-6.648-.611-13.4-.483-20.061a.491.491,0,0,1,.982.019c-.127,6.636.035,13.357.481,19.976a.491.491,0,0,1-.457.523Z"/>
      </g>
      <g id="Group_11178" data-name="Group 11178" transform="translate(2607.789 -1213.47)">
        <path id="Path_23896" data-name="Path 23896" d="M41.736,83.246a.491.491,0,0,1-.491-.476l-.3-9.857a.491.491,0,1,1,.981-.029l.3,9.857a.491.491,0,0,1-.476.505Z"/>
      </g>
    </g>
    <g id="Group_11219" data-name="Group 11219" transform="translate(-2636.117 1356.918)" opacity="0.261">
      <g id="Group_11011" data-name="Group 11011" transform="translate(2639.89 -960.147)">
        <g id="Group_11000" data-name="Group 11000" transform="translate(0 41.504)">
          <path id="Path_23702" data-name="Path 23702" d="M46.793,324.722s-10.187.147-12.7-.1c-.325,3.138.039,5.2,1.712,7.288a6.274,6.274,0,0,0,5.317,2.283C47.577,334.244,46.793,324.722,46.793,324.722Z" transform="translate(-33.63 -324.262)"/>
          <path id="Path_23703" data-name="Path 23703" d="M41.045,334.418H40.99A6.6,6.6,0,0,1,35.4,332c-1.66-2.072-2.145-4.118-1.79-7.55a.358.358,0,0,1,.392-.32c2.462.245,12.555.1,12.657.1h.005a.358.358,0,0,1,.357.328c.018.224.422,5.511-2.131,8.261A5.024,5.024,0,0,1,41.045,334.418Zm-6.759-9.544c-.266,3.01.2,4.845,1.669,6.678A5.871,5.871,0,0,0,41,333.7h.048a4.336,4.336,0,0,0,3.317-1.368c1.991-2.143,2-6.195,1.96-7.381C44.577,324.975,36.963,325.061,34.286,324.874Z" transform="translate(-33.497 -324.129)"/>
        </g>
        <g id="Group_11001" data-name="Group 11001" transform="translate(6.236 0)">
          <path id="Path_23704" data-name="Path 23704" d="M88.819,307.8a14.114,14.114,0,0,1-4.3,9.41c-1.891,1.8-3.916,2.168-7.278,2.141-10.588-.085-27-.455-34.707-.517,3.121-.137,6.5-.378,6.566-9.1.128-15.983.237-41.968.237-41.968l39.8.319S88.989,304.551,88.819,307.8Z" transform="translate(-42.173 -267.402)" fill="#fff"/>
          <path id="Path_23705" data-name="Path 23705" d="M77.434,319.578H77.1c-5.715-.046-13.277-.178-19.95-.294-5.765-.1-11.211-.195-14.757-.223a.359.359,0,0,1-.012-.717c3.026-.132,6.156-.269,6.223-8.748.126-15.8.236-41.707.237-41.967a.361.361,0,0,1,.107-.253.337.337,0,0,1,.255-.1l39.8.318a.359.359,0,0,1,.355.36c0,.365-.15,36.518-.318,39.736a14.477,14.477,0,0,1-4.414,9.652C82.681,319.189,80.575,319.578,77.434,319.578ZM46,318.383c3.194.044,7.1.112,11.165.182,6.67.116,14.231.248,19.943.294,3.209.023,5.178-.284,7.029-2.043a13.756,13.756,0,0,0,4.192-9.169c.158-3.03.3-35.554.315-39.344l-39.085-.313c-.014,3.195-.118,26.827-.236,41.61C49.278,315.241,47.823,317.471,46,318.383Zm42.687-10.717h0Z" transform="translate(-42.04 -267.27)"/>
        </g>
        <g id="Group_11004" data-name="Group 11004" transform="translate(20.396 7.767)">
          <g id="Group_11002" data-name="Group 11002" transform="translate(0.019)">
            <path id="Path_23706" data-name="Path 23706" d="M69.253,278.211h0l-7.669-.061a.119.119,0,0,1-.118-.12.12.12,0,0,1,.12-.118h0l7.669.061a.119.119,0,0,1,0,.239Z" transform="translate(-61.465 -277.911)"/>
          </g>
          <g id="Group_11003" data-name="Group 11003" transform="translate(0 2.401)">
            <path id="Path_23707" data-name="Path 23707" d="M72.383,281.526h0l-10.825-.087a.119.119,0,0,1,0-.239h0l10.824.086a.12.12,0,0,1,0,.239Z" transform="translate(-61.439 -281.2)"/>
          </g>
        </g>
        <g id="Group_11005" data-name="Group 11005" transform="translate(26.612 20.839)">
          <path id="Path_23708" data-name="Path 23708" d="M90.384,296.22h0l-20.31-.162a.12.12,0,0,1,0-.239h0l20.309.163a.119.119,0,0,1,0,.239Z" transform="translate(-69.955 -295.819)"/>
        </g>
        <g id="Group_11006" data-name="Group 11006" transform="translate(26.549 28.687)">
          <path id="Path_23709" data-name="Path 23709" d="M90.3,306.971h0l-20.31-.162a.12.12,0,0,1-.118-.12.13.13,0,0,1,.12-.119l20.309.163a.119.119,0,1,1,0,.239Z" transform="translate(-69.869 -306.57)"/>
        </g>
        <g id="Group_11007" data-name="Group 11007" transform="translate(26.486 36.535)">
          <path id="Path_23710" data-name="Path 23710" d="M90.212,317.723h0l-20.31-.162a.119.119,0,0,1,0-.239h0l20.309.162a.119.119,0,1,1,0,.239Z" transform="translate(-69.783 -317.322)"/>
        </g>
        <g id="Group_11008" data-name="Group 11008" transform="translate(19.848 19.6)">
          <path id="Path_23711" data-name="Path 23711" d="M61.179,295.56a.956.956,0,1,1,.948.964A.955.955,0,0,1,61.179,295.56Z" transform="translate(-60.821 -294.254)"/>
          <path id="Path_23712" data-name="Path 23712" d="M62,296.749h-.011a1.314,1.314,0,0,1,.01-2.628h.011a1.314,1.314,0,0,1-.01,2.628Zm0-1.911a.6.6,0,1,0,.426.178.591.591,0,0,0-.421-.178Z" transform="translate(-60.688 -294.121)"/>
        </g>
        <g id="Group_11009" data-name="Group 11009" transform="translate(19.785 27.448)">
          <path id="Path_23713" data-name="Path 23713" d="M61.093,306.312a.956.956,0,1,1,.948.963A.956.956,0,0,1,61.093,306.312Z" transform="translate(-60.735 -305.006)"/>
          <path id="Path_23714" data-name="Path 23714" d="M61.917,307.5h-.011a1.314,1.314,0,0,1,.01-2.628h.011a1.314,1.314,0,0,1-.01,2.628Zm0-1.911a.6.6,0,0,0-.6.592.6.6,0,0,0,.593.6h.005a.6.6,0,0,0,0-1.194Z" transform="translate(-60.602 -304.873)"/>
        </g>
        <g id="Group_11010" data-name="Group 11010" transform="translate(19.723 35.181)">
          <path id="Path_23715" data-name="Path 23715" d="M61.008,316.907a.956.956,0,1,1,.948.964A.957.957,0,0,1,61.008,316.907Z" transform="translate(-60.65 -315.601)"/>
          <path id="Path_23716" data-name="Path 23716" d="M61.832,318.1h-.01a1.313,1.313,0,0,1-1.3-1.325h0a1.317,1.317,0,0,1,1.315-1.3h.01a1.314,1.314,0,0,1-.01,2.629Zm-.6-1.319a.6.6,0,0,0,.593.6.6.6,0,0,0,.01-1.195h-.005a.6.6,0,0,0-.6.593Z" transform="translate(-60.517 -315.468)"/>
        </g>
      </g>
      <g id="Group_11021" data-name="Group 11021" transform="translate(2664.364 -884.325)">
        <rect id="Rectangle_4111" data-name="Rectangle 4111" width="4.69" height="4.69" transform="translate(0.358 0.358)"/>
        <path id="Path_23728" data-name="Path 23728" d="M72.075,376.552H67.384a.359.359,0,0,1-.358-.358V371.5a.358.358,0,0,1,.358-.358h4.691a.358.358,0,0,1,.358.358v4.69A.359.359,0,0,1,72.075,376.552Zm-4.332-.717h3.974v-3.973H67.743Z" transform="translate(-67.026 -371.145)"/>
      </g>
      <g id="Group_11168" data-name="Group 11168" transform="translate(2645.131 -997.841)">
        <path id="Path_23885" data-name="Path 23885" d="M42.9,234.446a2.049,2.049,0,0,1-.568-.08,2.474,2.474,0,0,1-1.649-2.326,5.149,5.149,0,0,1,.789-2.646,15.043,15.043,0,0,1,4.734-4.985c-.02-.07-.041-.139-.062-.209-.945-3.05-2.991-5.676-4.8-7.992a.359.359,0,0,1,.566-.441c1.842,2.365,3.931,5.045,4.915,8.221l0,.015a21.088,21.088,0,0,1,4.007-1.92,48.734,48.734,0,0,1,11.742-2.172.359.359,0,0,1,.07.714,48.141,48.141,0,0,0-11.571,2.133,20.307,20.307,0,0,0-4.051,1.967c.639,2.688.462,6.144-1.827,8.545A3.476,3.476,0,0,1,42.9,234.446Zm3.493-9.3a14.2,14.2,0,0,0-4.3,4.6,4.484,4.484,0,0,0-.7,2.264,1.791,1.791,0,0,0,1.13,1.667c.945.269,1.889-.623,2.155-.9A8.518,8.518,0,0,0,46.389,225.15Z" transform="translate(-40.676 -215.629)"/>
      </g>
      <g id="Group_11211" data-name="Group 11211" transform="translate(2637.403 -905.877)">
        <path id="Path_23928" data-name="Path 23928" d="M36.982,349.9a.361.361,0,0,1-.092-.012,9.41,9.41,0,0,1-6.8-7.867.359.359,0,0,1,.712-.082,8.679,8.679,0,0,0,6.27,7.256.358.358,0,0,1-.092.7Z" transform="translate(-30.089 -341.618)"/>
      </g>
      <g id="Group_11212" data-name="Group 11212" transform="translate(2636.118 -898.341)">
        <path id="Path_23929" data-name="Path 23929" d="M33.725,356.187a.364.364,0,0,1-.117-.02,11.581,11.581,0,0,1-5.2-3.639.358.358,0,1,1,.556-.452,11.015,11.015,0,0,0,4.877,3.414.358.358,0,0,1-.118.7Z" transform="translate(-28.329 -351.943)"/>
      </g>
    </g>
    <g id="Group_11094" data-name="Group 11094" transform="translate(249.789 -101.47)" opacity="0.261">
      <g id="Group_11085" data-name="Group 11085">
        <path id="Path_23794" data-name="Path 23794" d="M385.4,305.94a.491.491,0,0,1-.473-.36l-18.663-67.637a.489.489,0,0,1,.343-.6l55.581-15.267a.489.489,0,0,1,.6.343l5.031,18.314a.491.491,0,0,1-.947.26l-4.9-17.84-54.633,15.006,18.4,66.69,54.544-15.028-2.974-10.827a.491.491,0,0,1,.947-.26l3.1,11.3a.492.492,0,0,1-.343.6l-55.49,15.289A.542.542,0,0,1,385.4,305.94Z"/>
      </g>
      <g id="Group_11088" data-name="Group 11088">
        <g id="Group_11086" data-name="Group 11086">
          <path id="Path_23795" data-name="Path 23795" d="M404.442,238.348a.163.163,0,0,1-.043-.321l10.13-2.783a.164.164,0,1,1,.087.316l-10.131,2.783A.158.158,0,0,1,404.442,238.348Z"/>
        </g>
        <g id="Group_11087" data-name="Group 11087">
          <path id="Path_23796" data-name="Path 23796" d="M401.143,242.665a.164.164,0,0,1-.043-.322l14.3-3.927a.163.163,0,1,1,.086.315l-14.3,3.928A.167.167,0,0,1,401.143,242.665Z"/>
        </g>
      </g>
      <g id="Group_11089" data-name="Group 11089">
        <path id="Path_23797" data-name="Path 23797" d="M384.143,262.425a.164.164,0,0,1-.043-.322l31.176-8.563a.164.164,0,0,1,.087.316l-31.177,8.563A.159.159,0,0,1,384.143,262.425Z"/>
      </g>
      <g id="Group_11090" data-name="Group 11090">
        <path id="Path_23798" data-name="Path 23798" d="M387.121,272.642a.164.164,0,0,1-.043-.322l26.2-7.2a.164.164,0,0,1,.087.316l-26.2,7.2A.158.158,0,0,1,387.121,272.642Z"/>
      </g>
      <g id="Group_11091" data-name="Group 11091">
        <path id="Path_23799" data-name="Path 23799" d="M389.838,283.16a.164.164,0,0,1-.043-.322l28-7.692a.164.164,0,0,1,.087.316l-28.005,7.692A.167.167,0,0,1,389.838,283.16Z"/>
      </g>
      <g id="Group_11093" data-name="Group 11093">
        <g id="Group_11092" data-name="Group 11092">
          <path id="Path_23800" data-name="Path 23800" d="M445.451,258.993c-1.465-.6-2.385-.4-3.584-.844-.415-1.154-1.279-3.087-1.744-4.233.851-1.311,1.374-1.714,2.121-2.827a.963.963,0,0,0-.332-.419c-.347-.309-.695-.618-1.051-.916a23.3,23.3,0,0,0-4.258-2.835c-.832,1.318-1.478,2.56-2.124,3.8a16.412,16.412,0,0,0-4.53.167,33.371,33.371,0,0,0-1.854-3.819,19.032,19.032,0,0,0-5.18,3.246,21.067,21.067,0,0,0,1.948,2.876,32.434,32.434,0,0,0-2.3,3.983c-1.517-.367-2.7-.419-4.128-.778a11.985,11.985,0,0,0-.459,6.99c1.456-.2,2.265-.482,3.578-.74A16.746,16.746,0,0,0,424,266.633c-.776,1.256-1.119,2.275-1.827,3.267a11.1,11.1,0,0,0,4.628,3.374c.648-1.214,1.065-1.97,1.667-3.035a19.539,19.539,0,0,0,4.465.17,14.524,14.524,0,0,1,1.494,3.028,16.336,16.336,0,0,0,6.03-1.938,27.122,27.122,0,0,0-1.29-3.3,14.458,14.458,0,0,0,2.262-3.857,19.649,19.649,0,0,1,3.255.044A12.824,12.824,0,0,0,445.451,258.993Zm-11.039,4.884c-.8.559-1.623,1.079-4.354.23-1.074-.334-3.721-2.245-2.14-5.95a3.75,3.75,0,0,1,2.931-2.252,5.809,5.809,0,0,1,3.206.329,4.311,4.311,0,0,1,2.392,3.7A4.73,4.73,0,0,1,434.412,263.877Z"/>
          <path id="Path_23801" data-name="Path 23801" d="M434.429,273.928a.492.492,0,0,1-.455-.308l-.069-.171a13.624,13.624,0,0,0-1.216-2.515,19.741,19.741,0,0,1-3.837-.161l-.112-.012c-.479.852-.888,1.593-1.5,2.744a.491.491,0,0,1-.612.226,11.573,11.573,0,0,1-4.833-3.525.491.491,0,0,1-.015-.591,12.271,12.271,0,0,0,.925-1.621c.212-.42.43-.852.705-1.322a17.239,17.239,0,0,1-2.139-3.464c-.334.071-.64.144-.939.215a22.251,22.251,0,0,1-2.281.45.491.491,0,0,1-.541-.357,12.362,12.362,0,0,1,.468-7.277.49.49,0,0,1,.584-.318c.7.176,1.335.275,2.008.38.547.085,1.109.173,1.722.306a30.861,30.861,0,0,1,1.832-3.159l.145-.23a19.914,19.914,0,0,1-1.781-2.665.491.491,0,0,1,.1-.6,19.506,19.506,0,0,1,5.313-3.331.49.49,0,0,1,.624.207,33.96,33.96,0,0,1,1.731,3.513,16.939,16.939,0,0,1,3.942-.139c.594-1.139,1.216-2.315,1.993-3.545a.491.491,0,0,1,.641-.174,23.839,23.839,0,0,1,4.347,2.894c.36.3.711.614,1.062.926a1.366,1.366,0,0,1,.481.662.493.493,0,0,1-.067.4,15.737,15.737,0,0,1-.976,1.288,16,16,0,0,0-1,1.32c.147.357.323.77.507,1.2.371.872.787,1.848,1.065,2.587a7.4,7.4,0,0,0,1.233.246,8.3,8.3,0,0,1,2.157.532.493.493,0,0,1,.3.424,13.247,13.247,0,0,1-.795,5.591.485.485,0,0,1-.478.318c-.359-.013-.665-.033-.953-.052a12.605,12.605,0,0,0-1.94-.018,15.079,15.079,0,0,1-2.018,3.446,10.555,10.555,0,0,1,.653,1.668c.139.428.282.87.5,1.395a.492.492,0,0,1-.219.621,16.744,16.744,0,0,1-6.213,1.994A.437.437,0,0,1,434.429,273.928Zm-1.492-4.01a.493.493,0,0,1,.411.223,13.749,13.749,0,0,1,1.4,2.763,15.765,15.765,0,0,0,5.1-1.633c-.148-.389-.261-.737-.363-1.053a8.676,8.676,0,0,0-.733-1.78.494.494,0,0,1,.048-.558,14,14,0,0,0,2.18-3.717.491.491,0,0,1,.414-.314,13.2,13.2,0,0,1,2.394-.01c.179.012.365.024.567.035a12.21,12.21,0,0,0,.631-4.536,7.806,7.806,0,0,0-1.634-.359,7.405,7.405,0,0,1-1.648-.371.49.49,0,0,1-.291-.293c-.263-.73-.721-1.807-1.125-2.757-.229-.539-.446-1.048-.612-1.458a.49.49,0,0,1,.043-.452,16.538,16.538,0,0,1,1.2-1.621c.243-.3.475-.579.73-.937l-.061-.054c-.343-.3-.687-.611-1.039-.906a22.846,22.846,0,0,0-3.768-2.562c-.711,1.163-1.3,2.288-1.864,3.38a.486.486,0,0,1-.485.262,15.983,15.983,0,0,0-4.395.162.491.491,0,0,1-.54-.3,32.833,32.833,0,0,0-1.609-3.371,18.537,18.537,0,0,0-4.347,2.718,20.774,20.774,0,0,0,1.613,2.338l.1.136a.493.493,0,0,1,.024.559l-.328.519a26.769,26.769,0,0,0-1.934,3.4.492.492,0,0,1-.565.278c-.73-.177-1.394-.28-2.036-.38-.53-.083-1.074-.168-1.649-.294a11.427,11.427,0,0,0-.417,5.857c.664-.109,1.2-.235,1.752-.367.42-.1.854-.2,1.363-.3a.488.488,0,0,1,.547.293,16.161,16.161,0,0,0,2.373,3.866.491.491,0,0,1,.036.567c-.341.552-.6,1.057-.843,1.545a15.152,15.152,0,0,1-.789,1.434,10.608,10.608,0,0,0,3.791,2.781c.5-.939.9-1.654,1.464-2.654a.5.5,0,0,1,.478-.247l.435.047a17.059,17.059,0,0,0,3.908.126A.583.583,0,0,1,432.937,269.918Zm-.491-4.87a8.7,8.7,0,0,1-2.534-.472,4.559,4.559,0,0,1-2.574-2.365,5.144,5.144,0,0,1,.128-4.247,4.226,4.226,0,0,1,3.328-2.547,6.159,6.159,0,0,1,3.47.373,4.814,4.814,0,0,1,2.674,4.13,5.191,5.191,0,0,1-2.246,4.36h0A3.582,3.582,0,0,1,432.446,265.048Zm-.426-8.725a9.884,9.884,0,0,0-1.116.07,3.27,3.27,0,0,0-2.535,1.957,4.147,4.147,0,0,0-.14,3.449,3.628,3.628,0,0,0,1.975,1.839c2.55.794,3.219.328,3.927-.164h0a4.253,4.253,0,0,0,1.825-3.523,3.811,3.811,0,0,0-2.11-3.273A4.149,4.149,0,0,0,432.02,256.323Zm2.391,7.554h0Z"/>
        </g>
      </g>
    </g>
  </g>
</svg>
