<svg xmlns="http://www.w3.org/2000/svg" width="181.876" height="39.619" viewBox="0 0 181.876 39.619">
  <g id="Group_11280" data-name="Group 11280" transform="translate(383.754 -377.025)">
    <g id="Hire" style="mix-blend-mode: normal;isolation: isolate">
      <g id="Group_11277" data-name="Group 11277" style="mix-blend-mode: normal;isolation: isolate">
        <path id="Path_24024" data-name="Path 24024" d="M-359.81,377.661a2.122,2.122,0,0,1,.574,1.538V404.25a2.116,2.116,0,0,1-.574,1.537,2.01,2.01,0,0,1-1.517.6,2.053,2.053,0,0,1-1.517-.574,2.1,2.1,0,0,1-.573-1.558V393.221h-16.155V404.25a2.116,2.116,0,0,1-.574,1.537,2.01,2.01,0,0,1-1.517.6,2.053,2.053,0,0,1-1.517-.574,2.1,2.1,0,0,1-.574-1.558V379.2a2.122,2.122,0,0,1,.574-1.538,2.017,2.017,0,0,1,1.517-.6,2.017,2.017,0,0,1,1.517.6,2.122,2.122,0,0,1,.574,1.538v10.577h16.155V379.2a2.121,2.121,0,0,1,.573-1.538,2.017,2.017,0,0,1,1.517-.6A2.017,2.017,0,0,1-359.81,377.661Z" fill="#2d3136"/>
        <path id="Path_24025" data-name="Path 24025" d="M-352.922,381.085a2.255,2.255,0,0,1-.7-1.723,2.189,2.189,0,0,1,.7-1.7,2.694,2.694,0,0,1,1.886-.636,2.716,2.716,0,0,1,1.866.636,2.164,2.164,0,0,1,.717,1.7,2.259,2.259,0,0,1-.7,1.723,2.644,2.644,0,0,1-1.886.656A2.64,2.64,0,0,1-352.922,381.085Zm.389,24.805a1.807,1.807,0,0,1-.594-1.476V387.768a1.869,1.869,0,0,1,.594-1.5,2.213,2.213,0,0,1,1.5-.512,2.137,2.137,0,0,1,1.476.512,1.9,1.9,0,0,1,.574,1.5v16.646a1.841,1.841,0,0,1-.574,1.476,2.189,2.189,0,0,1-1.476.492A2.268,2.268,0,0,1-352.533,405.89Z" fill="#2d3136"/>
        <path id="Path_24026" data-name="Path 24026" d="M-330.864,387.439a1.842,1.842,0,0,1-.451,1.354,2.433,2.433,0,0,1-1.558.533l-1.23.123a5.3,5.3,0,0,0-3.834,1.8,5.834,5.834,0,0,0-1.25,3.771v9.39a1.841,1.841,0,0,1-.574,1.476,2.191,2.191,0,0,1-1.476.492,2.268,2.268,0,0,1-1.5-.492,1.807,1.807,0,0,1-.594-1.476V387.727a1.821,1.821,0,0,1,.594-1.456,2.213,2.213,0,0,1,1.5-.512,1.947,1.947,0,0,1,1.373.512,1.835,1.835,0,0,1,.554,1.415v1.967a6.019,6.019,0,0,1,2.378-2.746,7.979,7.979,0,0,1,3.526-1.107l.574-.041Q-330.864,385.636-330.864,387.439Z" fill="#2d3136"/>
        <path id="Path_24027" data-name="Path 24027" d="M-312.25,401.585a1.755,1.755,0,0,1,.369,1.147,2.359,2.359,0,0,1-1.476,2.01,13.02,13.02,0,0,1-3.137,1.271,12.746,12.746,0,0,1-3.259.451,10.1,10.1,0,0,1-7.5-2.768A10.264,10.264,0,0,1-330,396.132a11.858,11.858,0,0,1,1.21-5.453,8.9,8.9,0,0,1,3.4-3.691,9.521,9.521,0,0,1,4.982-1.311,8.141,8.141,0,0,1,6.355,2.583,10,10,0,0,1,2.337,6.969q0,1.641-1.476,1.641h-12.669q.41,6.354,6.109,6.355a7.542,7.542,0,0,0,2.624-.411,18.77,18.77,0,0,0,2.337-1.065c.082-.055.308-.171.676-.349a2.249,2.249,0,0,1,.923-.266A1.165,1.165,0,0,1-312.25,401.585Zm-11.89-11.357a7.081,7.081,0,0,0-1.722,4.264h10.578a6.85,6.85,0,0,0-1.415-4.285,4.536,4.536,0,0,0-3.628-1.5A5,5,0,0,0-324.14,390.228Z" fill="#2d3136"/>
      </g>
    </g>
    <g id="Wing" style="mix-blend-mode: normal;isolation: isolate">
      <g id="Group_11278" data-name="Group 11278" style="mix-blend-mode: normal;isolation: isolate">
        <path id="Path_24028" data-name="Path 24028" d="M-264.469,377.875a2.044,2.044,0,0,1,1.161-.345,2.141,2.141,0,0,1,1.441.538,1.759,1.759,0,0,1,.623,1.4,2.1,2.1,0,0,1-.172.86l-9.5,26.573a2.267,2.267,0,0,1-.945,1.119,2.721,2.721,0,0,1-1.42.386,2.642,2.642,0,0,1-1.376-.386,2.057,2.057,0,0,1-.9-1.119l-7.826-22.187-8,22.187a2.053,2.053,0,0,1-.9,1.119,2.639,2.639,0,0,1-1.376.386,2.6,2.6,0,0,1-1.4-.386,2.3,2.3,0,0,1-.924-1.119l-9.5-26.573a2.087,2.087,0,0,1-.173-.86,1.735,1.735,0,0,1,.645-1.4,2.338,2.338,0,0,1,1.548-.538,2.148,2.148,0,0,1,1.183.345,2.026,2.026,0,0,1,.8,1.031l7.954,22.875,8.084-22.66a2.167,2.167,0,0,1,.839-1.118,2.236,2.236,0,0,1,1.268-.387,2.062,2.062,0,0,1,1.247.409,2.6,2.6,0,0,1,.861,1.139L-273.327,402l8.084-23.09A2.067,2.067,0,0,1-264.469,377.875Z" fill="#ffcd00"/>
        <path id="Path_24029" data-name="Path 24029" d="M-256.6,381.787a2.361,2.361,0,0,1-.731-1.806,2.294,2.294,0,0,1,.731-1.784,2.819,2.819,0,0,1,1.978-.667,2.84,2.84,0,0,1,1.957.667,2.266,2.266,0,0,1,.752,1.784,2.364,2.364,0,0,1-.731,1.806,2.769,2.769,0,0,1-1.978.688A2.766,2.766,0,0,1-256.6,381.787Zm.409,26.015a1.894,1.894,0,0,1-.624-1.548V388.8a1.96,1.96,0,0,1,.624-1.57,2.321,2.321,0,0,1,1.569-.537,2.245,2.245,0,0,1,1.548.537,2,2,0,0,1,.6,1.57v17.458a1.929,1.929,0,0,1-.6,1.548,2.3,2.3,0,0,1-1.548.515A2.376,2.376,0,0,1-256.191,407.8Z" fill="#ffcd00"/>
        <path id="Path_24030" data-name="Path 24030" d="M-227.7,395.074v11.18a1.976,1.976,0,0,1-.581,1.526,2.285,2.285,0,0,1-1.612.537,2.168,2.168,0,0,1-1.57-.558,1.991,1.991,0,0,1-.581-1.505V395.289a5.992,5.992,0,0,0-1.054-3.913,4.066,4.066,0,0,0-3.289-1.247,5.612,5.612,0,0,0-4.213,1.634,6.019,6.019,0,0,0-1.591,4.386v10.105a1.991,1.991,0,0,1-.581,1.505,2.171,2.171,0,0,1-1.57.558,2.249,2.249,0,0,1-1.591-.558,1.954,1.954,0,0,1-.6-1.505v-17.5a1.939,1.939,0,0,1,.624-1.484,2.21,2.21,0,0,1,1.569-.58,2.034,2.034,0,0,1,1.5.559,1.981,1.981,0,0,1,.56,1.462v1.763a6.963,6.963,0,0,1,2.881-2.881,8.7,8.7,0,0,1,4.171-.989Q-227.7,386.6-227.7,395.074Z" fill="#ffcd00"/>
        <path id="Path_24031" data-name="Path 24031" d="M-202.958,387.269a2.067,2.067,0,0,1,.58,1.527v17.63q0,4.815-2.559,7.266t-7.546,2.452a15.463,15.463,0,0,1-7.74-1.763,2.564,2.564,0,0,1-1.59-2.151,1.774,1.774,0,0,1,.408-1.2,1.279,1.279,0,0,1,1.01-.472,4.428,4.428,0,0,1,1.763.644,21.7,21.7,0,0,0,2.881,1.14,10.945,10.945,0,0,0,3.182.408q5.934,0,5.934-5.976v-3.311a6.579,6.579,0,0,1-2.752,2.945,8.54,8.54,0,0,1-4.3,1.054,9.351,9.351,0,0,1-4.9-1.29,8.676,8.676,0,0,1-3.333-3.655,12.061,12.061,0,0,1-1.182-5.461,11.87,11.87,0,0,1,1.2-5.461,9.016,9.016,0,0,1,3.333-3.676,9.116,9.116,0,0,1,4.88-1.312,8.471,8.471,0,0,1,4.236,1.032,6.753,6.753,0,0,1,2.773,2.924v-1.806a2,2,0,0,1,.58-1.505,2.168,2.168,0,0,1,1.57-.559A2.124,2.124,0,0,1-202.958,387.269Zm-5.311,14.9a7.6,7.6,0,0,0,1.591-5.117,7.681,7.681,0,0,0-1.569-5.1,5.436,5.436,0,0,0-4.408-1.871,5.6,5.6,0,0,0-4.45,1.849,7.522,7.522,0,0,0-1.613,5.117,7.459,7.459,0,0,0,1.634,5.117,5.611,5.611,0,0,0,4.429,1.849A5.483,5.483,0,0,0-208.269,402.169Z" fill="#ffcd00"/>
      </g>
      <g id="Group_11279" data-name="Group 11279" style="mix-blend-mode: normal;isolation: isolate">
        <path id="Path_24032" data-name="Path 24032" d="M-264.469,377.875a2.044,2.044,0,0,1,1.161-.345,2.141,2.141,0,0,1,1.441.538,1.759,1.759,0,0,1,.623,1.4,2.1,2.1,0,0,1-.172.86l-9.5,26.573a2.267,2.267,0,0,1-.945,1.119,2.721,2.721,0,0,1-1.42.386,2.642,2.642,0,0,1-1.376-.386,2.057,2.057,0,0,1-.9-1.119l-7.826-22.187-8,22.187a2.053,2.053,0,0,1-.9,1.119,2.639,2.639,0,0,1-1.376.386,2.6,2.6,0,0,1-1.4-.386,2.3,2.3,0,0,1-.924-1.119l-9.5-26.573a2.087,2.087,0,0,1-.173-.86,1.735,1.735,0,0,1,.645-1.4,2.338,2.338,0,0,1,1.548-.538,2.148,2.148,0,0,1,1.183.345,2.026,2.026,0,0,1,.8,1.031l7.954,22.875,8.084-22.66a2.167,2.167,0,0,1,.839-1.118,2.236,2.236,0,0,1,1.268-.387,2.062,2.062,0,0,1,1.247.409,2.6,2.6,0,0,1,.861,1.139L-273.327,402l8.084-23.09A2.067,2.067,0,0,1-264.469,377.875Z" fill="none" stroke="#ffcd00" stroke-width="1"/>
        <path id="Path_24033" data-name="Path 24033" d="M-256.6,381.787a2.361,2.361,0,0,1-.731-1.806,2.294,2.294,0,0,1,.731-1.784,2.819,2.819,0,0,1,1.978-.667,2.84,2.84,0,0,1,1.957.667,2.266,2.266,0,0,1,.752,1.784,2.364,2.364,0,0,1-.731,1.806,2.769,2.769,0,0,1-1.978.688A2.766,2.766,0,0,1-256.6,381.787Zm.409,26.015a1.894,1.894,0,0,1-.624-1.548V388.8a1.96,1.96,0,0,1,.624-1.57,2.321,2.321,0,0,1,1.569-.537,2.245,2.245,0,0,1,1.548.537,2,2,0,0,1,.6,1.57v17.458a1.929,1.929,0,0,1-.6,1.548,2.3,2.3,0,0,1-1.548.515A2.376,2.376,0,0,1-256.191,407.8Z" fill="none" stroke="#ffcd00" stroke-width="1"/>
        <path id="Path_24034" data-name="Path 24034" d="M-227.7,395.074v11.18a1.976,1.976,0,0,1-.581,1.526,2.285,2.285,0,0,1-1.612.537,2.168,2.168,0,0,1-1.57-.558,1.991,1.991,0,0,1-.581-1.505V395.289a5.992,5.992,0,0,0-1.054-3.913,4.066,4.066,0,0,0-3.289-1.247,5.612,5.612,0,0,0-4.213,1.634,6.019,6.019,0,0,0-1.591,4.386v10.105a1.991,1.991,0,0,1-.581,1.505,2.171,2.171,0,0,1-1.57.558,2.249,2.249,0,0,1-1.591-.558,1.954,1.954,0,0,1-.6-1.505v-17.5a1.939,1.939,0,0,1,.624-1.484,2.21,2.21,0,0,1,1.569-.58,2.034,2.034,0,0,1,1.5.559,1.981,1.981,0,0,1,.56,1.462v1.763a6.963,6.963,0,0,1,2.881-2.881,8.7,8.7,0,0,1,4.171-.989Q-227.7,386.6-227.7,395.074Z" fill="none" stroke="#ffcd00" stroke-width="1"/>
        <path id="Path_24035" data-name="Path 24035" d="M-202.958,387.269a2.067,2.067,0,0,1,.58,1.527v17.63q0,4.815-2.559,7.266t-7.546,2.452a15.463,15.463,0,0,1-7.74-1.763,2.564,2.564,0,0,1-1.59-2.151,1.774,1.774,0,0,1,.408-1.2,1.279,1.279,0,0,1,1.01-.472,4.428,4.428,0,0,1,1.763.644,21.7,21.7,0,0,0,2.881,1.14,10.945,10.945,0,0,0,3.182.408q5.934,0,5.934-5.976v-3.311a6.579,6.579,0,0,1-2.752,2.945,8.54,8.54,0,0,1-4.3,1.054,9.351,9.351,0,0,1-4.9-1.29,8.676,8.676,0,0,1-3.333-3.655,12.061,12.061,0,0,1-1.182-5.461,11.87,11.87,0,0,1,1.2-5.461,9.016,9.016,0,0,1,3.333-3.676,9.116,9.116,0,0,1,4.88-1.312,8.471,8.471,0,0,1,4.236,1.032,6.753,6.753,0,0,1,2.773,2.924v-1.806a2,2,0,0,1,.58-1.505,2.168,2.168,0,0,1,1.57-.559A2.124,2.124,0,0,1-202.958,387.269Zm-5.311,14.9a7.6,7.6,0,0,0,1.591-5.117,7.681,7.681,0,0,0-1.569-5.1,5.436,5.436,0,0,0-4.408-1.871,5.6,5.6,0,0,0-4.45,1.849,7.522,7.522,0,0,0-1.613,5.117,7.459,7.459,0,0,0,1.634,5.117,5.611,5.611,0,0,0,4.429,1.849A5.483,5.483,0,0,0-208.269,402.169Z" fill="none" stroke="#ffcd00" stroke-width="1"/>
      </g>
    </g>
  </g>
</svg>
