<svg id="_x30_9_x2C__error_x2C__folder_x2C__files_and_folders_x2C__storage_x2C__data" xmlns="http://www.w3.org/2000/svg" width="65.233" height="65.233" viewBox="0 0 65.233 65.233">
  <g id="Group_5172" data-name="Group 5172" transform="translate(0 0)">
    <path id="Path_16443" data-name="Path 16443" d="M66.233,12.512H62.4V4.837H24.023V1H1V54.721H17.337a17.267,17.267,0,0,0,32.559,0H66.233ZM58.558,8.674v3.837H24.023V8.674ZM33.616,62.4a13.43,13.43,0,1,1,13.43-13.43A13.445,13.445,0,0,1,33.616,62.4Zm17.16-11.512a17.267,17.267,0,1,0-34.321,0H4.837V24.023H62.4v26.86Z" transform="translate(-1 -1)" fill="#cbcbcb"/>
    <path id="Path_16444" data-name="Path 16444" d="M241,421h3.837v3.837H241Z" transform="translate(-210.302 -367.279)" fill="#cbcbcb"/>
    <path id="Path_16445" data-name="Path 16445" d="M241,301h3.837v11.512H241Z" transform="translate(-210.302 -262.628)" fill="#cbcbcb"/>
  </g>
</svg>
