<svg xmlns="http://www.w3.org/2000/svg" width="66" height="65" viewBox="0 0 66 65">
  <g id="Group_5195" data-name="Group 5195" transform="translate(-1090 -538)">
    <rect id="Rectangle_2828" data-name="Rectangle 2828" width="66" height="65" transform="translate(1090 538)" fill="none"/>
    <g id="Group_5193" data-name="Group 5193" transform="translate(3458.688 783.109)">
      <path id="Path_16449" data-name="Path 16449" d="M-740.131,1155.3a5.706,5.706,0,0,1-3.652,4.457,5.388,5.388,0,0,1-5.657-.942,7.5,7.5,0,0,1-.678-.614q-4.859-4.852-9.717-9.705c-.293-.291-.445-.415.06-.7a19.022,19.022,0,0,0,7.371-7.358c.284-.5.422-.386.738-.07q4.844,4.867,9.706,9.716a5.857,5.857,0,0,1,1.831,3.359c.133.19-.034.436.115.623v.611C-740.165,1154.867-740,1155.113-740.131,1155.3Z" transform="translate(-1563.674 -1347.38)" fill="#cbcbcb"/>
      <path id="Path_16450" data-name="Path 16450" d="M-2275.006-243.885l.011.117c-.307.283-.692.2-1.049.2q-7.818.009-15.637,0-11.208,0-22.417,0c-.376,0-.781.092-1.111-.2a.457.457,0,0,0,.026-.079c0-.012-.014-.027-.022-.041Z" transform="translate(-49.699 0)" fill="#cbcbcb"/>
      <path id="Path_16451" data-name="Path 16451" d="M-2364.908-239.458l40.214,0a1.689,1.689,0,0,1,1.337,1.666c.015,2.849.006,5.7.006,8.535-.13.076-.208-.012-.292-.056-7.555-3.952-14.734-3.084-21.437,1.913a17.921,17.921,0,0,0-7.311,12.824,19.513,19.513,0,0,0,14.8,21.289,19.068,19.068,0,0,0,9.538-.106.66.66,0,0,1,.749.185c1.208,1.239,2.436,2.458,3.669,3.673a.884.884,0,0,1,.293.691c-.01,3.3,0,6.6-.01,9.893a1.815,1.815,0,0,1-1.924,1.91c-7.7.006-15.393,0-23.088.015-.49,0-.5-.21-.5-.58q.012-7.237.006-14.473c0-1.763-.611-2.365-2.4-2.365-4.805,0-9.61-.008-14.415.012-.483,0-.59-.13-.59-.6q.019-21.221.011-42.443A1.785,1.785,0,0,1-2364.908-239.458Z" transform="translate(0 -4.307)" fill="#cbcbcb"/>
      <path id="Path_16452" data-name="Path 16452" d="M-1676.514,208.472c-.112,8.667-6.179,15.637-15.844,15.755a15.749,15.749,0,0,1-15.72-15.793,15.76,15.76,0,0,1,15.727-15.8C-1682.333,192.818-1676.586,200.057-1676.514,208.472Z" transform="translate(-640.772 -424.974)" fill="#cbcbcb"/>
      <path id="Path_16453" data-name="Path 16453" d="M-2305.186,1612.836l-12.427-12.425c.115-.092.3-.025.478-.025,3.784,0,7.568.007,11.353-.016.513,0,.636.137.633.64-.021,3.783-.011,7.567-.015,11.35C-2305.164,1612.533-2305.108,1612.718-2305.186,1612.836Z" transform="translate(-47.358 -1795.472)" fill="#cbcbcb"/>
      <path id="Path_16454" data-name="Path 16454" d="M-1535.381,350.52a11.615,11.615,0,0,1,11.449,11.807,11.62,11.62,0,0,1-11.686,11.451,11.424,11.424,0,0,1-11.518-11.749A11.414,11.414,0,0,1-1535.381,350.52Z" transform="translate(-797.458 -578.683)" fill="#cbcbcb"/>
      <path id="Path_16455" data-name="Path 16455" d="M-1410.671,496.984a7.955,7.955,0,0,1,7.874-7.966,7.827,7.827,0,0,1,8.026,7.965,7.833,7.833,0,0,1-8.024,7.968A7.963,7.963,0,0,1-1410.671,496.984Z" transform="translate(-930.314 -713.52)" fill="#fff"/>
    </g>
  </g>
</svg>
