<svg xmlns="http://www.w3.org/2000/svg" width="50.265" height="50.262" viewBox="0 0 50.265 50.262">
  <g id="Group_41375" data-name="Group 41375" transform="translate(-480.523 -353.31)">
    <path id="Path_2896" data-name="Path 2896" d="M93.029,299.454h-30.3a9.983,9.983,0,0,1-9.982-9.982v-30.3a9.982,9.982,0,0,1,9.982-9.979h30.3a9.982,9.982,0,0,1,9.982,9.979v30.3a9.983,9.983,0,0,1-9.982,9.982" transform="translate(427.777 104.118)" fill="#fafafa"/>
    <g id="employee" transform="translate(495 366.321)">
      <path id="Path_63714" data-name="Path 63714" d="M9,10a5,5,0,1,1,5-5A5.006,5.006,0,0,1,9,10Z" fill="#3b4046"/>
      <path id="Path_63715" data-name="Path 63715" d="M4.75,12A4.754,4.754,0,0,0,0,16.75v3.5A.755.755,0,0,0,.75,21H10V17.75a3.756,3.756,0,0,1,3.21-3.7,3.846,3.846,0,0,1,1.38-1.86c-1-.286-1.054-.19-9.84-.19Z" fill="#3b4046"/>
      <path id="Path_63716" data-name="Path 63716" d="M22.25,16H21v-.75a1.752,1.752,0,0,0-1.75-1.75h-2.5A1.752,1.752,0,0,0,15,15.25V16H13.75a1.74,1.74,0,0,0-1.253.533L18,19.4l5.5-2.871A1.74,1.74,0,0,0,22.25,16ZM16.5,16v-.75a.25.25,0,0,1,.25-.25h2.5a.25.25,0,0,1,.25.25V16Z" fill="#3b4046"/>
      <path id="Path_63717" data-name="Path 63717" d="M18.347,20.915a.751.751,0,0,1-.693,0L12,17.965V22.25A1.752,1.752,0,0,0,13.75,24h8.5A1.752,1.752,0,0,0,24,22.25V17.965Z" fill="#3b4046"/>
    </g>
  </g>
</svg>
