<svg xmlns="http://www.w3.org/2000/svg" width="77.064" height="77.692" viewBox="0 0 77.064 77.692">
  <g id="_007-document" data-name="007-document" transform="translate(-0.126)">
    <g id="Group_2266" data-name="Group 2266" transform="translate(0.126)">
      <path id="Path_6302" data-name="Path 6302" d="M64.886,21.4a3.366,3.366,0,0,0-3.353-2.861H34.355L29.419,12.7a5.578,5.578,0,0,0-4.2-2H7.564A4.311,4.311,0,0,0,4.3,12.249a4.4,4.4,0,0,0-.946,3.53l.469,2.761h-.31A3.343,3.343,0,0,0,.166,22.4L5.649,57.969a4.389,4.389,0,0,0,4.339,3.715H66.9a3.389,3.389,0,0,0,2.564-1.176,3.355,3.355,0,0,0,.784-2.7Z" transform="translate(-0.126 16.008)" fill="#eaeaea"/>
      <path id="Path_6303" data-name="Path 6303" d="M34.979,4.351H13.721a2.795,2.795,0,0,0,0,5.582H34.979a2.795,2.795,0,0,0,0-5.582Z" transform="translate(16.249 6.512)" fill="#eaeaea"/>
      <path id="Path_6304" data-name="Path 6304" d="M35.761,12.88a3.268,3.268,0,0,0-2.449-1.158H27.28l1.373,12.72,3.278,22.222L36.52,15.477A3.3,3.3,0,0,0,35.761,12.88Z" transform="translate(40.513 17.543)" fill="#eaeaea"/>
      <path id="Path_6305" data-name="Path 6305" d="M12.369,5.131h37.11V30.324h5.133V3.263A3.3,3.3,0,0,0,51.328,0H10.289a3.529,3.529,0,0,0-3.5,3.578v19.5h5.58Z" transform="translate(9.846)" fill="#eaeaea"/>
      <path id="Path_6306" data-name="Path 6306" d="M34.945,8.46H13.686a2.752,2.752,0,0,0-2.6,2.244,9.146,9.146,0,0,1,4.721,2.916l.387.419H34.945a2.793,2.793,0,0,0,0-5.58Z" transform="translate(16.283 12.661)" fill="#eaeaea"/>
    </g>
  </g>
</svg>
