<svg id="_x32_9_Change_Picture" xmlns="http://www.w3.org/2000/svg" width="118.417" height="118.417" viewBox="0 0 118.417 118.417">
  <g id="Group_5230" data-name="Group 5230">
    <path id="Path_16456" data-name="Path 16456" d="M36.952,41.9A12.952,12.952,0,1,0,24,28.952,12.968,12.968,0,0,0,36.952,41.9Z" transform="translate(20.406 13.604)" fill="#a8a8a8"/>
    <path id="Path_16457" data-name="Path 16457" d="M50.454,32h-18.5A12.968,12.968,0,0,0,19,44.952v3.7A5.558,5.558,0,0,0,24.551,54.2h33.3a5.558,5.558,0,0,0,5.551-5.551v-3.7A12.968,12.968,0,0,0,50.454,32Z" transform="translate(16.155 27.208)" fill="#a8a8a8"/>
    <circle id="Ellipse_96" data-name="Ellipse 96" cx="3.741" cy="3.741" r="3.741" transform="translate(96.123 99.864)" fill="#a8a8a8"/>
    <path id="Path_16458" data-name="Path 16458" d="M75.454,51.551H71.016l-.385-1.922A4.718,4.718,0,0,0,66.2,46H58.8a4.718,4.718,0,0,0-4.428,3.628l-.385,1.922H49.551A5.567,5.567,0,0,0,44,57.1V73.754A5.567,5.567,0,0,0,49.551,79.3h25.9a5.567,5.567,0,0,0,5.551-5.551V57.1A5.567,5.567,0,0,0,75.454,51.551ZM62.5,71.9a7.4,7.4,0,1,1,7.4-7.4A7.408,7.408,0,0,1,62.5,71.9Z" transform="translate(37.411 39.112)" fill="#a8a8a8"/>
    <path id="Path_16459" data-name="Path 16459" d="M9.251,57.358a48.107,48.107,0,1,1,89.71,24.053h4.653a8.178,8.178,0,0,1,4.931,1.745,57.349,57.349,0,1,0-30.835,27.813V100.913A48.047,48.047,0,0,1,9.251,57.358Z" fill="#a8a8a8"/>
    <path id="Path_16460" data-name="Path 16460" d="M82.5,81.01a8.57,8.57,0,0,1,6.063-5.332,44.552,44.552,0,1,0-16.8,15.157v-.574A9.262,9.262,0,0,1,81.01,81.01Zm-5.188-11.1a9.262,9.262,0,0,1-9.251,9.251h-33.3A9.262,9.262,0,0,1,25.5,69.909v-3.7a16.662,16.662,0,0,1,15.535-16.6,16.652,16.652,0,1,1,20.738,0,16.662,16.662,0,0,1,15.535,16.6Z" transform="translate(5.952 5.952)" fill="none"/>
  </g>
</svg>
